<svg version="1.1" viewBox="0.0 0.0 550.3333333333334 649.8845144356956" fill="none" stroke="none" stroke-linecap="square" stroke-miterlimit="10" xmlns:xlink="http://www.w3.org/1999/xlink" xmlns="http://www.w3.org/2000/svg"><clipPath id="p.0"><path d="m0 0l550.3333 0l0 649.8845l-550.3333 0l0 -649.8845z" clip-rule="nonzero"/></clipPath><g clip-path="url(#p.0)"><path fill="#000000" fill-opacity="0.0" d="m0 0l550.3333 0l0 649.8845l-550.3333 0z" fill-rule="evenodd"/><path fill="#ffd966" d="m240.65749 42.27034l-17.0 -32.0l30.0 13.000001l10.501297 16.999998l4.0 -38.0l12.0 37.0l22.498688 -31.999998l10.501312 38.498688l23.0 -30.498688l6.4986877 43.498688l29.501312 -26.0l10.0 15.0l-17.0 30.501312l37.0 -17.501312l-9.501312 23.0l-1.0 20.501312l43.501312 -16.0l-19.501312 20.498688l-15.498688 19.0l21.0 3.5013123l10.0 17.498688l-311.0 -8.498688l26.000008 -21.501312l23.498688 1.5013123l-2.0 -8.0l-37.0 -27.0l26.501312 -2.0l22.498688 6.4986877l-7.0 -19.498688l-11.498688 -22.0l31.0 9.498688l16.498688 -5.4986877l-14.498688 -26.999998l22.0 6.0l15.498688 14.999998z" fill-rule="evenodd"/><path stroke="#000000" stroke-width="1.0" stroke-linejoin="round" stroke-linecap="butt" d="m240.65749 42.27034l-17.0 -32.0l30.0 13.000001l10.501297 16.999998l4.0 -38.0l12.0 37.0l22.498688 -31.999998l10.501312 38.498688l23.0 -30.498688l6.4986877 43.498688l29.501312 -26.0l10.0 15.0l-17.0 30.501312l37.0 -17.501312l-9.501312 23.0l-1.0 20.501312l43.501312 -16.0l-19.501312 20.498688l-15.498688 19.0l21.0 3.5013123l10.0 17.498688l-311.0 -8.498688l26.000008 -21.501312l23.498688 1.5013123l-2.0 -8.0l-37.0 -27.0l26.501312 -2.0l22.498688 6.4986877l-7.0 -19.498688l-11.498688 -22.0l31.0 9.498688l16.498688 -5.4986877l-14.498688 -26.999998l22.0 6.0l15.498688 14.999998z" fill-rule="evenodd"/><defs><radialGradient id="p.1" gradientUnits="userSpaceOnUse" gradientTransform="matrix(11.893958050495865 0.0 0.0 11.893958050495865 0.0 0.0)" spreadMethod="pad" cx="23.581195771002978" cy="12.895671632323188" fx="23.581195771002978" fy="12.895671632323188" r="11.89395809173584"><stop offset="0.0" stop-color="#ffe599"/><stop offset="1.0" stop-color="#ff9900"/></radialGradient></defs><path fill="url(#p.1)" d="m177.95407 153.38058l0 0c0 -53.8369 45.899628 -97.48032 102.519684 -97.48032l0 0c27.18991 0 53.266205 10.270218 72.49237 28.551323c19.226166 18.281105 30.027313 43.075607 30.027313 68.929l0 0c0 53.836884 -45.899628 97.4803 -102.519684 97.4803l0 0c-56.620056 0 -102.519684 -43.643417 -102.519684 -97.4803z" fill-rule="evenodd"/><path stroke="#000000" stroke-width="4.0" stroke-linejoin="round" stroke-linecap="butt" d="m177.95407 153.38058l0 0c0 -53.8369 45.899628 -97.48032 102.519684 -97.48032l0 0c27.18991 0 53.266205 10.270218 72.49237 28.551323c19.226166 18.281105 30.027313 43.075607 30.027313 68.929l0 0c0 53.836884 -45.899628 97.4803 -102.519684 97.4803l0 0c-56.620056 0 -102.519684 -43.643417 -102.519684 -97.4803z" fill-rule="evenodd"/><defs><linearGradient id="p.2" gradientUnits="userSpaceOnUse" gradientTransform="matrix(23.153076256259894 0.0 0.0 23.153076256259894 0.0 0.0)" spreadMethod="pad" x1="0.264642871647342" y1="4.8179011665249005" x2="0.2645590404541684" y2="27.97097742263303"><stop offset="0.0" stop-color="#ffffff"/><stop offset="0.3" stop-color="#ffffff"/><stop offset="1.0" stop-color="#1155cc"/></linearGradient></defs><path fill="url(#p.2)" d="m6.1272964 379.58267l0 0c0 -148.02971 120.453026 -268.0315 269.03937 -268.0315l0 0c71.3537 0 139.78491 28.238953 190.23956 78.50461c50.45468 50.265656 78.799835 118.44052 78.799835 189.52689l0 0c0 148.0297 -120.45303 268.03152 -269.0394 268.03152l0 0c-148.58633 0 -269.03937 -120.00183 -269.03937 -268.03152z" fill-rule="evenodd"/><path stroke="#1c4587" stroke-width="4.0" stroke-linejoin="round" stroke-linecap="butt" d="m6.1272964 379.58267l0 0c0 -148.02971 120.453026 -268.0315 269.03937 -268.0315l0 0c71.3537 0 139.78491 28.238953 190.23956 78.50461c50.45468 50.265656 78.799835 118.44052 78.799835 189.52689l0 0c0 148.0297 -120.45303 268.03152 -269.0394 268.03152l0 0c-148.58633 0 -269.03937 -120.00183 -269.03937 -268.03152z" fill-rule="evenodd"/><path fill="#ffffff" d="m60.562992 350.41995l0 0c0 -120.49376 97.05904 -218.17323 216.78741 -218.17323l0 0c57.495575 0 112.63632 22.986038 153.29184 63.90146c40.655518 40.91542 63.495544 96.408646 63.495544 154.27177l0 0c0 120.493744 -97.05902 218.17325 -216.78738 218.17325l0 0c-119.72838 0 -216.78741 -97.679504 -216.78741 -218.17325z" fill-rule="evenodd"/><path stroke="#1c4587" stroke-width="4.0" stroke-linejoin="round" stroke-linecap="butt" d="m60.562992 350.41995l0 0c0 -120.49376 97.05904 -218.17323 216.78741 -218.17323l0 0c57.495575 0 112.63632 22.986038 153.29184 63.90146c40.655518 40.91542 63.495544 96.408646 63.495544 154.27177l0 0c0 120.493744 -97.05902 218.17325 -216.78738 218.17325l0 0c-119.72838 0 -216.78741 -97.679504 -216.78741 -218.17325z" fill-rule="evenodd"/><path fill="#ffffff" d="m186.01968 363.22833l293.5118 0l0 55.496063l-293.5118 0z" fill-rule="evenodd"/><path stroke="#000000" stroke-width="1.0" stroke-linejoin="round" stroke-linecap="butt" d="m186.01968 363.22833l293.5118 0l0 55.496063l-293.5118 0z" fill-rule="evenodd"/><path fill="#93c47d" d="m64.92107 420.3084c4.5 -4.583557 20.084427 -11.667969 28.501312 -13.501312c8.416885 -1.8333435 15.250221 -0.08224487 22.0 2.5013123c6.7497864 2.5835571 11.915573 10.8333435 18.498688 13.0c6.5831146 2.1666565 15.749786 1.4169006 21.0 0c5.2502136 -1.4168701 4.917755 -6.917755 10.501312 -8.501312c5.583557 -1.5835571 15.583557 -2.2502136 23.0 -1.0c7.416443 1.2502136 14.082245 8.084442 21.498688 8.501312c7.416443 0.41690063 11.583115 -4.7497864 23.0 -6.0c11.416885 -1.2502136 34.33464 -1.8346558 45.501328 -1.5013123c11.1666565 0.3333435 15.582214 2.0844421 21.498688 3.5013123c5.916443 1.4169006 9.0 4.7502136 14.0 5.0c5.0 0.24978638 9.5 -2.9177551 16.0 -3.5013123c6.5 -0.5835571 16.249756 0.9164429 23.0 0c6.7502136 -0.9164429 11.167969 -4.165344 17.501312 -5.4986877c6.333313 -1.3333435 14.748901 -2.9177551 20.498688 -2.5013123c5.749756 0.41644287 10.083099 3.7497864 14.0 5.0c3.91687 1.2502136 3.5013123 3.3346558 9.501312 2.5013123c6.0 -0.8333435 18.748901 -6.5013123 26.498688 -7.5013123c7.749756 -1.0 12.6666565 0.16796875 20.0 1.5013123c7.333313 1.3333435 22.416443 -1.0844116 24.0 6.4986877c1.5835266 7.58313 27.001312 33.5 -14.498688 39.0c-41.5 5.5 -176.00131 -4.0 -234.50133 -6.0c-58.5 -2.0 -88.2489 -3.0835571 -116.49869 -6.0c-28.249779 -2.9164429 -43.916443 -7.2489014 -53.0 -11.498688c-9.0835495 -4.2497864 -6.0013084 -9.416443 -1.5013123 -14.0z" fill-rule="evenodd"/><path fill="#ffffff" d="m143.5315 435.82678l336.0 0l0 41.480316l-336.0 0z" fill-rule="evenodd"/><path fill="#5b0f00" d="m178.42126 362.82153l22.099396 -28.094513l265.2815 0l22.099426 28.094513z" fill-rule="evenodd"/><path stroke="#000000" stroke-width="1.0" stroke-linejoin="round" stroke-linecap="butt" d="m178.42126 362.82153l22.099396 -28.094513l265.2815 0l22.099426 28.094513z" fill-rule="evenodd"/><path fill="#000000" d="m215.521 374.37796l80.50394 0l0 30.48819l-80.50394 0z" fill-rule="evenodd"/><path stroke="#000000" stroke-width="1.0" stroke-linejoin="round" stroke-linecap="butt" d="m215.521 374.37796l80.50394 0l0 30.48819l-80.50394 0z" fill-rule="evenodd"/><path fill="#000000" d="m383.00394 374.37796l80.50394 0l0 30.48819l-80.50394 0z" fill-rule="evenodd"/><path stroke="#000000" stroke-width="1.0" stroke-linejoin="round" stroke-linecap="butt" d="m383.00394 374.37796l80.50394 0l0 30.48819l-80.50394 0z" fill-rule="evenodd"/><path fill="#434343" d="m330.01968 369.37796l22.48819 0l0 49.35431l-22.48819 0z" fill-rule="evenodd"/><path stroke="#000000" stroke-width="1.0" stroke-linejoin="round" stroke-linecap="butt" d="m330.01968 369.37796l22.48819 0l0 49.35431l-22.48819 0z" fill-rule="evenodd"/><path fill="#93c47d" d="m312.92004 475.00787c-4.0 2.1666565 -7.6666565 0.33465576 -8.0 3.5013123c-0.3333435 3.1666565 5.416443 10.582245 6.0 15.498688c0.5835571 4.916443 2.2510986 9.749786 -2.4986877 14.0c-4.7497864 4.250244 -20.916443 6.6679688 -26.0 11.501343c-5.083557 4.833313 -6.584442 13.83197 -4.5013123 17.498657c2.0830994 3.666687 8.8333435 3.8346558 17.0 4.501343c8.1666565 0.666626 23.833344 -1.7510986 32.0 -0.5013428c8.1666565 1.2497559 11.6666565 7.666687 17.0 8.0c5.3333435 0.333313 7.1666565 -5.583557 15.0 -6.0c7.8333435 -0.41644287 17.916443 11.001343 32.0 3.5013428c14.083557 -7.5 41.7511 -37.668 52.501312 -48.501343c10.750214 -10.8333435 10.6666565 -13.082245 12.0 -16.498688c1.3333435 -3.4164429 1.9168701 -2.5 -4.0 -4.0c-5.9169006 -1.5 -21.334656 -3.7497864 -31.501312 -5.0c-10.1666565 -1.2502136 -16.998688 -1.3346558 -29.498688 -2.5013123c-12.5 -1.1666565 -35.2511 -3.7489014 -45.501312 -4.4986877c-10.250214 -0.7497864 -10.6666565 -1.5830994 -16.0 0c-5.3333435 1.5831299 -12.0 7.3320312 -16.0 9.498688z" fill-rule="evenodd"/><path fill="#edd797" d="m254.92116 467.0291c10.916428 -2.6666565 21.083115 -7.2489014 26.999985 -5.4986877c5.9169006 1.7502136 8.917755 10.8333435 8.501312 16.0c-0.41644287 5.1666565 -3.2497864 10.0 -11.0 15.0c-7.7502136 5.0 -30.917755 9.583557 -35.501297 15.0c-4.583557 5.4164734 4.3333282 12.832001 8.0 17.498688c3.6666565 4.666687 11.666672 7.001343 13.999985 10.501343c2.3333435 3.5 2.58313 8.33197 0 10.498657c-2.5830994 2.166687 -10.832016 3.2510986 -15.4986725 2.5013428c-4.6666718 -0.7498169 -8.91777 -7.08313 -12.501312 -7.0c-3.5835571 0.08306885 -4.750229 7.2489014 -9.0 7.498657c-4.2497864 0.24975586 -11.415573 -3.666687 -16.498688 -6.0c-5.0831146 -2.333313 -6.916458 -8.083557 -14.0 -8.0c-7.083557 0.08355713 -20.41777 7.9177856 -28.501312 8.501343c-8.083557 0.5834961 -7.0 5.583496 -20.0 -5.0c-13.0 -10.583557 -44.75023 -41.501343 -58.000008 -58.501343c-13.249779 -17.0 -19.582237 -35.665344 -21.498688 -43.498688c-1.9164505 -7.8333435 4.0835495 -3.6679688 10.0 -3.5013123c5.9164505 0.1666565 19.332024 2.5844421 25.498688 4.5013123c6.166664 1.9169006 7.1679764 6.583557 11.501312 7.0c4.333336 0.41644287 5.915573 -7.1679688 14.498695 -4.5013123c8.583115 2.6666565 27.749771 14.834656 37.0 20.501312c9.250214 5.6666565 10.584427 10.665344 18.501312 13.498688c7.9168854 2.8333435 17.750214 4.6679688 29.0 3.5013123c11.249771 -1.1666565 27.58223 -7.834656 38.498688 -10.501312z" fill-rule="evenodd"/><path fill="#434343" d="m298.9191 453.02722c3.2497864 -1.6666565 22.0 -6.5 28.0 -7.0c6.0 -0.5 6.3333435 2.0 8.0 4.0c1.666687 2.0 1.7497864 5.666687 2.0 8.0c0.25024414 2.3333435 4.5013123 3.0 -0.49868774 6.0c-5.0 3.0 -25.251068 10.58313 -29.501312 12.0c-4.2502136 1.4169006 3.08313 -1.5822449 4.0 -3.4986877c0.91690063 -1.9164429 2.0844421 -5.2497864 1.5013123 -8.0c-0.58309937 -2.7502136 -2.7497559 -6.5844116 -5.0 -8.501312c-2.2502136 -1.9168701 -11.751068 -1.333313 -8.501312 -3.0z" fill-rule="evenodd"/><path fill="#b7b7b7" d="m283.42126 465.5013l0 0c0 -7.175354 6.380829 -12.992126 14.251953 -12.992126l0 0c7.871155 0 14.251984 5.8167725 14.251984 12.992126l0 0c0 7.175354 -6.380829 12.992126 -14.251984 12.992126l0 0c-7.8711243 0 -14.251953 -5.8167725 -14.251953 -12.992126z" fill-rule="evenodd"/><path stroke="#000000" stroke-width="1.0" stroke-linejoin="round" stroke-linecap="butt" d="m283.42126 465.5013l0 0c0 -7.175354 6.380829 -12.992126 14.251953 -12.992126l0 0c7.871155 0 14.251984 5.8167725 14.251984 12.992126l0 0c0 7.175354 -6.380829 12.992126 -14.251984 12.992126l0 0c-7.8711243 0 -14.251953 -5.8167725 -14.251953 -12.992126z" fill-rule="evenodd"/><path fill="#6fa8dc" d="m290.4204 477.00888c-4.5 2.5 -4.416443 10.251099 -11.0 14.501312c-6.583557 4.2502136 -21.751099 8.0 -28.501312 11.0c-6.7502136 3.0 -13.0 2.4169006 -12.0 7.0c1.0 4.58313 13.5 14.832031 18.0 20.498718c4.5 5.666626 10.916443 11.584412 9.0 13.501282c-1.9164429 1.9168701 -14.832016 -1.166687 -20.498688 -2.0c-5.6666718 -0.833313 -9.751099 -3.333313 -13.501312 -3.0c-3.7502136 0.333313 -4.2502136 5.833313 -9.0 5.0c-4.7497864 -0.833313 -11.832016 -8.416443 -19.498688 -10.0c-7.6666718 -1.5835571 -17.751099 -1.5844116 -26.501312 0.49871826c-8.750214 2.0830688 -23.0 7.749756 -26.0 12.0c-3.0 4.250183 -7.7502136 7.2510376 8.0 13.501282c15.750214 6.250244 50.33464 20.5 86.50131 24.0c36.166656 3.5 105.91559 0.41687012 130.49869 -3.0c24.58313 -3.41687 15.8333435 -11.834656 17.0 -17.501282c1.1666565 -5.666687 -4.6666565 -12.998718 -10.0 -16.498718c-5.3333435 -3.5 -16.0 -4.334656 -22.0 -4.5012817c-6.0 -0.16668701 -9.1666565 3.9177246 -14.0 3.5012817c-4.8333435 -0.41644287 -8.3333435 -4.666687 -15.0 -6.0c-6.6666565 -1.333313 -16.666656 -1.0 -25.0 -2.0c-8.3333435 -1.0 -22.250214 -0.5831299 -25.0 -4.0c-2.7497864 -3.41687 3.0013123 -12.584412 8.501312 -16.501282c5.5 -3.9169312 20.248901 -3.2502441 24.498688 -7.0000305c4.2497864 -3.7497864 2.4164429 -9.915558 1.0 -15.498688c-1.4164429 -5.5830994 -5.2489014 -15.083099 -9.498688 -18.0c-4.2497864 -2.91687 -11.5 -2.0013123 -16.0 0.49868774z" fill-rule="evenodd"/><path fill="#cccccc" d="m147.68636 429.52756l335.74805 0l0 6.299225l-335.74805 0z" fill-rule="evenodd"/><defs><linearGradient id="p.3" gradientUnits="userSpaceOnUse" gradientTransform="matrix(23.153076256259894 0.0 0.0 23.153076256259894 0.0 0.0)" spreadMethod="pad" x1="0.264642871647342" y1="4.817844485678543" x2="0.2645590404541684" y2="27.970920741786674"><stop offset="0.0" stop-color="#ffffff"/><stop offset="0.39" stop-color="#ffffff"/><stop offset="1.0" stop-color="#1155cc"/></linearGradient></defs><path fill="url(#p.3)" d="m6.1272964 379.58136l0 0c0 -148.02971 120.453026 -268.0315 269.03937 -268.0315l0 0c71.3537 0 139.78491 28.238953 190.23956 78.50461c50.45468 50.265656 78.799835 118.44052 78.799835 189.52689l0 0c0 148.02972 -120.45303 268.0315 -269.0394 268.0315l0 0c-148.58633 0 -269.03937 -120.00177 -269.03937 -268.0315zm65.00836 0l0 0c0 112.12659 91.347786 203.02313 204.031 203.02313c112.68323 0 204.03104 -90.896545 204.03104 -203.02313l0 0c0 -112.12659 -91.34781 -203.02313 -204.03104 -203.02313l0 0c-112.68321 0 -204.031 90.896545 -204.031 203.02313z" fill-rule="evenodd"/><path fill="#cfe2f3" d="m152.21753 209.43228c11.047241 -8.725754 20.691025 0.7756195 27.35469 -2.3268127c6.6636505 -3.1024323 7.190872 -13.960922 12.627243 -16.287735c5.4363556 -2.326828 14.204224 4.6536407 19.990952 2.3268127c5.786743 -2.3268127 6.838516 -13.57312 14.729462 -16.287735c7.89093 -2.7146301 25.25148 0.9696808 32.616196 0c7.3647156 -0.96969604 7.363739 -5.042557 11.572144 -5.818161c4.2084045 -0.77560425 7.716095 -0.3867035 13.678345 1.1645203c5.9622498 1.5512085 15.431519 6.979355 22.095184 8.142761c6.6636353 1.1634064 12.450714 -3.1013184 17.88675 -1.1623077c5.436035 1.9390259 9.118225 10.081787 14.729431 12.796402c5.6112366 2.7146301 12.449738 0.58262634 18.937866 3.4913483c6.488159 2.9087067 13.151794 11.246292 19.990967 13.960907c6.8391724 2.7146301 12.977631 -5.8174133 21.044067 2.326828c8.066467 8.144241 27.354706 38.39438 27.354706 46.53862c0 8.144226 -17.710236 1.9390259 -27.354706 2.3268127c-9.64444 0.38781738 -22.796234 -1.1633911 -30.511993 0c-7.7157593 1.1634216 -4.5594482 7.1745605 -15.782562 6.9804688c-11.2230835 -0.1940918 -37.352173 -7.7571716 -51.55606 -8.144989c-14.203888 -0.38778687 -18.93753 6.0118713 -33.667297 5.8181763c-14.729782 -0.19372559 -41.735107 -6.786743 -54.71138 -6.9804688c-12.976288 -0.19372559 -13.852539 5.8181458 -23.146286 5.8181458c-9.293747 0 -21.74414 -5.429962 -32.61621 -5.8181458c-10.872055 -0.3881836 -25.251144 3.2954102 -32.616196 3.4891357c-7.365059 0.19369507 -16.133255 6.398926 -11.574142 -2.3268433c4.5591125 -8.725754 27.881577 -41.30197 38.928833 -50.02774z" fill-rule="evenodd"/><path fill="#3c78d8" d="m146.9966 266.16223l0 0c-0.24351501 -1.2002258 0.12310791 -2.2860413 0.8189087 -2.4252014l0 0c0.3341217 -0.06680298 0.70103455 0.09805298 1.019989 0.45837402c0.31895447 0.36029053 0.5638428 0.88653564 0.68078613 1.4628906l0 0c0.24353027 1.2002563 -0.12309265 2.2860413 -0.81889343 2.4252014l0 0c-0.6957855 0.13916016 -1.4572601 -0.7210083 -1.7007904 -1.9212646z" fill-rule="evenodd"/><path fill="#3c78d8" d="m141.49529 270.33023l0 0c-0.24353027 -1.2002563 0.12310791 -2.2860413 0.8189087 -2.4252014l0 0c0.3341217 -0.066833496 0.7010193 0.09805298 1.019989 0.4583435c0.31895447 0.36032104 0.5638428 0.88653564 0.68078613 1.4629211l0 0c0.24353027 1.2002258 -0.12309265 2.2860107 -0.81889343 2.425171l0 0c-0.6957855 0.13916016 -1.4572601 -0.7210083 -1.7007904 -1.9212341z" fill-rule="evenodd"/><path fill="#3c78d8" d="m151.74463 276.33023l0 0c-0.24353027 -1.2002563 0.12310791 -2.2860413 0.8189087 -2.4252014l0 0c0.3341217 -0.066833496 0.7010193 0.09805298 1.019989 0.4583435c0.31895447 0.36032104 0.5638428 0.88653564 0.68078613 1.4629211l0 0c0.24353027 1.2002258 -0.12309265 2.2860107 -0.81889343 2.425171l0 0c-0.6957855 0.13916016 -1.4572601 -0.7210083 -1.7007904 -1.9212341z" fill-rule="evenodd"/><path fill="#3c78d8" d="m148.34306 282.33023l0 0c-0.24353027 -1.2002563 0.12310791 -2.2860413 0.81889343 -2.4252014l0 0c0.33413696 -0.066833496 0.70103455 0.09805298 1.019989 0.4583435c0.31896973 0.36032104 0.56385803 0.88653564 0.6808014 1.4629211l0 0c0.24353027 1.2002258 -0.12310791 2.2860107 -0.8189087 2.425171l0 0c-0.6957855 0.13916016 -1.4572601 -0.7210083 -1.7007751 -1.9212341z" fill-rule="evenodd"/><path fill="#3c78d8" d="m131.26956 267.90503l0 0c-0.24351501 -1.2002563 0.12310791 -2.2860413 0.8189087 -2.4252014l0 0c0.3341217 -0.066833496 0.70103455 0.09805298 1.019989 0.4583435c0.31895447 0.36032104 0.5638428 0.88653564 0.68078613 1.4629211l0 0c0.24353027 1.2002258 -0.12309265 2.2860413 -0.81889343 2.4252014l0 0c-0.6957855 0.13916016 -1.4572601 -0.7210388 -1.7007904 -1.9212646z" fill-rule="evenodd"/><path fill="#3c78d8" d="m138.09372 281.82892l0 0c-0.24353027 -1.2002563 0.12310791 -2.2860413 0.81889343 -2.4252014l0 0c0.33413696 -0.066833496 0.70103455 0.09805298 1.019989 0.4583435c0.31896973 0.36032104 0.56385803 0.88653564 0.6808014 1.4629211l0 0c0.24353027 1.2002258 -0.12310791 2.2860107 -0.8189087 2.425171l0 0c-0.6957855 0.13916016 -1.4572601 -0.7210083 -1.7007751 -1.9212341z" fill-rule="evenodd"/><path fill="#3c78d8" d="m156.96773 286.6793l0 0c-0.24353027 -1.2002258 0.12310791 -2.2860413 0.81889343 -2.4252014l0 0c0.33413696 -0.06680298 0.70103455 0.09805298 1.0200043 0.45837402c0.31895447 0.36029053 0.5638428 0.88653564 0.68078613 1.4628906l0 0c0.24353027 1.2002563 -0.12310791 2.2860413 -0.81889343 2.4252014l0 0c-0.6957855 0.13916016 -1.4572601 -0.7210083 -1.7007904 -1.9212646z" fill-rule="evenodd"/><path fill="#3c78d8" d="m179.12259 274.53757l0 0c-0.24353027 -1.2002258 0.12310791 -2.2860413 0.81889343 -2.4252014l0 0c0.33413696 -0.066833496 0.70103455 0.09805298 1.019989 0.45837402c0.31896973 0.36029053 0.56385803 0.8865051 0.6808014 1.4628906l0 0c0.24353027 1.2002258 -0.12310791 2.2860413 -0.81889343 2.4252014l0 0c-0.6958008 0.13916016 -1.4572601 -0.7210388 -1.7007904 -1.9212646z" fill-rule="evenodd"/><path fill="#3c78d8" d="m173.62128 278.70554l0 0c-0.24353027 -1.2002258 0.12310791 -2.2860413 0.81889343 -2.4252014l0 0c0.33413696 -0.06680298 0.70103455 0.09805298 1.019989 0.45837402c0.31896973 0.36029053 0.56385803 0.88653564 0.6808014 1.4628906l0 0c0.24353027 1.2002563 -0.12310791 2.2860413 -0.81889343 2.4252014l0 0c-0.6958008 0.13916016 -1.4572601 -0.7210083 -1.7007904 -1.9212646z" fill-rule="evenodd"/><path fill="#3c78d8" d="m183.87062 284.70554l0 0c-0.24353027 -1.2002258 0.12310791 -2.2860413 0.81889343 -2.4252014l0 0c0.33413696 -0.06680298 0.70103455 0.09805298 1.019989 0.45837402c0.31896973 0.36029053 0.56385803 0.88653564 0.6808014 1.4628906l0 0c0.24353027 1.2002563 -0.12310791 2.2860413 -0.81889343 2.4252014l0 0c-0.6958008 0.13916016 -1.4572601 -0.7210083 -1.7007904 -1.9212646z" fill-rule="evenodd"/><path fill="#3c78d8" d="m180.46904 290.70554l0 0c-0.24353027 -1.2002258 0.12310791 -2.2860413 0.81889343 -2.4252014l0 0c0.33413696 -0.06680298 0.70103455 0.09805298 1.0200043 0.45837402c0.31895447 0.36029053 0.5638428 0.88653564 0.68078613 1.4628906l0 0c0.24353027 1.2002563 -0.12310791 2.2860413 -0.81889343 2.4252014l0 0c-0.6957855 0.13916016 -1.4572601 -0.7210083 -1.7007904 -1.9212646z" fill-rule="evenodd"/><path fill="#3c78d8" d="m163.39555 276.28033l0 0c-0.24353027 -1.2002258 0.12310791 -2.2860107 0.81889343 -2.425171l0 0c0.33413696 -0.066833496 0.70103455 0.09805298 1.019989 0.4583435c0.31896973 0.36032104 0.56385803 0.88653564 0.6808014 1.4628906l0 0c0.24353027 1.2002563 -0.12310791 2.2860413 -0.81889343 2.4252014l0 0c-0.6958008 0.13916016 -1.4572601 -0.7210083 -1.7007904 -1.9212646z" fill-rule="evenodd"/><path fill="#3c78d8" d="m170.2197 290.20422l0 0c-0.24353027 -1.2002258 0.12310791 -2.2860413 0.81889343 -2.4252014l0 0c0.33413696 -0.06680298 0.70103455 0.09805298 1.0200043 0.45837402c0.31895447 0.36029053 0.5638428 0.88653564 0.68078613 1.4628906l0 0c0.24353027 1.2002563 -0.12310791 2.2860413 -0.81889343 2.4252014l0 0c-0.6957855 0.13916016 -1.4572601 -0.7210083 -1.7007904 -1.9212646z" fill-rule="evenodd"/><path fill="#3c78d8" d="m189.09372 295.05463l0 0c-0.24353027 -1.2002258 0.12310791 -2.2860413 0.81889343 -2.4252014l0 0c0.33413696 -0.066833496 0.70103455 0.09805298 1.019989 0.45837402c0.31896973 0.36029053 0.56385803 0.8865051 0.6808014 1.4628906l0 0c0.24353027 1.2002563 -0.12310791 2.2860413 -0.8189087 2.4252014l0 0c-0.6957855 0.13916016 -1.4572601 -0.7210083 -1.7007751 -1.9212646z" fill-rule="evenodd"/><path fill="#3c78d8" d="m213.74725 282.78693l0 0c-0.24351501 -1.2002563 0.12310791 -2.2860413 0.8189087 -2.4252014l0 0c0.3341217 -0.066833496 0.70103455 0.09805298 1.019989 0.4583435c0.31895447 0.36032104 0.5638428 0.88653564 0.68078613 1.4628906l0 0c0.24353027 1.2002563 -0.12309265 2.2860413 -0.81889343 2.4252014l0 0c-0.6957855 0.13916016 -1.4572601 -0.7210083 -1.7007904 -1.9212341z" fill-rule="evenodd"/><path fill="#3c78d8" d="m208.24594 286.9549l0 0c-0.24351501 -1.2002563 0.12310791 -2.2860413 0.8189087 -2.4252014l0 0c0.3341217 -0.066833496 0.7010193 0.09805298 1.019989 0.4583435c0.31895447 0.36032104 0.5638428 0.88653564 0.68078613 1.4629211l0 0c0.24353027 1.2002258 -0.12309265 2.2860413 -0.81889343 2.4252014l0 0c-0.6957855 0.13916016 -1.4572601 -0.7210388 -1.7007904 -1.9212646z" fill-rule="evenodd"/><path fill="#3c78d8" d="m218.49529 292.9549l0 0c-0.24353027 -1.2002563 0.12310791 -2.2860413 0.8189087 -2.4252014l0 0c0.3341217 -0.066833496 0.7010193 0.09805298 1.019989 0.4583435c0.31895447 0.36032104 0.5638428 0.88653564 0.68078613 1.4629211l0 0c0.24353027 1.2002258 -0.12309265 2.2860413 -0.81889343 2.4252014l0 0c-0.6957855 0.13916016 -1.4572601 -0.7210388 -1.7007904 -1.9212646z" fill-rule="evenodd"/><path fill="#3c78d8" d="m215.09372 298.9549l0 0c-0.24353027 -1.2002563 0.12310791 -2.2860413 0.81889343 -2.4252014l0 0c0.33413696 -0.066833496 0.70103455 0.09805298 1.019989 0.4583435c0.31896973 0.36032104 0.56385803 0.88653564 0.6808014 1.4629211l0 0c0.24353027 1.2002258 -0.12310791 2.2860413 -0.8189087 2.4252014l0 0c-0.6957855 0.13916016 -1.4572601 -0.7210388 -1.7007751 -1.9212646z" fill-rule="evenodd"/><path fill="#3c78d8" d="m198.02022 284.5297l0 0c-0.24351501 -1.2002563 0.12310791 -2.2860413 0.8189087 -2.4252014l0 0c0.3341217 -0.066833496 0.70103455 0.09805298 1.019989 0.45837402c0.31895447 0.36029053 0.5638428 0.8865051 0.68078613 1.4628906l0 0c0.24353027 1.2002258 -0.12309265 2.2860413 -0.81889343 2.4252014l0 0c-0.6957855 0.13916016 -1.4572601 -0.7210388 -1.7007904 -1.9212646z" fill-rule="evenodd"/><path fill="#3c78d8" d="m204.84438 298.45358l0 0c-0.24353027 -1.2002563 0.12310791 -2.2860413 0.81889343 -2.4252014l0 0c0.33413696 -0.066833496 0.70103455 0.09805298 1.019989 0.4583435c0.31896973 0.36032104 0.56385803 0.88653564 0.6808014 1.4629211l0 0c0.24353027 1.2002258 -0.12310791 2.2860413 -0.8189087 2.4252014l0 0c-0.6957855 0.13916016 -1.4572601 -0.7210388 -1.7007751 -1.9212646z" fill-rule="evenodd"/><path fill="#3c78d8" d="m223.71838 303.304l0 0c-0.24353027 -1.2002563 0.12310791 -2.2860413 0.81889343 -2.4252014l0 0c0.33413696 -0.066833496 0.70103455 0.09805298 1.0200043 0.4583435c0.31895447 0.36032104 0.5638428 0.88653564 0.68078613 1.4629211l0 0c0.24353027 1.2002258 -0.12310791 2.2860107 -0.81889343 2.425171l0 0c-0.6957855 0.13916016 -1.4572601 -0.7210083 -1.7007904 -1.9212341z" fill-rule="evenodd"/><path fill="#3c78d8" d="m157.24594 296.78955l0 0c-0.24351501 -1.2002563 0.12310791 -2.2860413 0.8189087 -2.4252014l0 0c0.3341217 -0.066833496 0.7010193 0.09805298 1.019989 0.4583435c0.31895447 0.36032104 0.5638428 0.88653564 0.68078613 1.4628906l0 0c0.24353027 1.2002563 -0.12309265 2.2860413 -0.81889343 2.4252014l0 0c-0.6957855 0.13916016 -1.4572601 -0.7210083 -1.7007904 -1.9212341z" fill-rule="evenodd"/><path fill="#3c78d8" d="m151.74463 300.95752l0 0c-0.24353027 -1.2002563 0.12310791 -2.2860413 0.8189087 -2.4252014l0 0c0.3341217 -0.066833496 0.7010193 0.09805298 1.019989 0.4583435c0.31895447 0.36032104 0.5638428 0.88653564 0.68078613 1.4629211l0 0c0.24353027 1.2002258 -0.12309265 2.2860413 -0.81889343 2.4252014l0 0c-0.6957855 0.13916016 -1.4572601 -0.7210388 -1.7007904 -1.9212646z" fill-rule="evenodd"/><path fill="#3c78d8" d="m161.99397 306.95752l0 0c-0.24353027 -1.2002563 0.12310791 -2.2860413 0.8189087 -2.4252014l0 0c0.3341217 -0.066833496 0.7010193 0.09805298 1.019989 0.4583435c0.31895447 0.36032104 0.5638428 0.88653564 0.68078613 1.4629211l0 0c0.24353027 1.2002258 -0.12309265 2.2860413 -0.81889343 2.4252014l0 0c-0.6957855 0.13916016 -1.4572601 -0.7210388 -1.7007904 -1.9212646z" fill-rule="evenodd"/><path fill="#3c78d8" d="m158.5924 312.95752l0 0c-0.24353027 -1.2002563 0.12310791 -2.2860413 0.81889343 -2.4252014l0 0c0.33413696 -0.066833496 0.70103455 0.09805298 1.019989 0.4583435c0.31896973 0.36032104 0.56385803 0.88653564 0.6808014 1.4629211l0 0c0.24353027 1.2002258 -0.12310791 2.2860413 -0.8189087 2.4252014l0 0c-0.6957855 0.13916016 -1.4572601 -0.7210388 -1.7007751 -1.9212646z" fill-rule="evenodd"/><path fill="#3c78d8" d="m141.5189 298.53232l0 0c-0.24351501 -1.2002563 0.12310791 -2.2860413 0.8189087 -2.4252014l0 0c0.3341217 -0.066833496 0.70103455 0.09805298 1.019989 0.45837402c0.31895447 0.36029053 0.5638428 0.8865051 0.68078613 1.4628906l0 0c0.24353027 1.2002258 -0.12309265 2.2860413 -0.81889343 2.4252014l0 0c-0.6957855 0.13916016 -1.4572601 -0.7210388 -1.7007904 -1.9212646z" fill-rule="evenodd"/><path fill="#3c78d8" d="m148.34306 312.4562l0 0c-0.24353027 -1.2002563 0.12310791 -2.2860413 0.81889343 -2.4252014l0 0c0.33413696 -0.066833496 0.70103455 0.09805298 1.019989 0.4583435c0.31896973 0.36032104 0.56385803 0.88653564 0.6808014 1.4629211l0 0c0.24353027 1.2002258 -0.12310791 2.2860413 -0.8189087 2.4252014l0 0c-0.6957855 0.13916016 -1.4572601 -0.7210388 -1.7007751 -1.9212646z" fill-rule="evenodd"/><path fill="#3c78d8" d="m167.21707 317.3066l0 0c-0.24353027 -1.2002563 0.12310791 -2.2860413 0.81889343 -2.4252014l0 0c0.33413696 -0.066833496 0.70103455 0.09805298 1.0200043 0.4583435c0.31895447 0.36032104 0.5638428 0.88653564 0.68078613 1.4629211l0 0c0.24353027 1.2002258 -0.12310791 2.2860107 -0.81889343 2.425171l0 0c-0.6957855 0.13916016 -1.4572601 -0.7210083 -1.7007904 -1.9212341z" fill-rule="evenodd"/><path fill="#3c78d8" d="m196.9966 310.0953l0 0c-0.24351501 -1.2002258 0.12310791 -2.2860413 0.8189087 -2.4252014l0 0c0.3341217 -0.06680298 0.70103455 0.09805298 1.019989 0.45837402c0.31895447 0.36029053 0.5638428 0.8865051 0.68078613 1.4628906l0 0c0.24353027 1.2002563 -0.12309265 2.2860413 -0.81889343 2.4252014l0 0c-0.6957855 0.13916016 -1.4572601 -0.7210083 -1.7007904 -1.9212646z" fill-rule="evenodd"/><path fill="#3c78d8" d="m191.49529 314.26328l0 0c-0.24353027 -1.2002258 0.12310791 -2.2860107 0.8189087 -2.425171l0 0c0.3341217 -0.066833496 0.7010193 0.09802246 1.019989 0.4583435c0.31895447 0.36029053 0.5638428 0.88653564 0.68078613 1.4628906l0 0c0.24353027 1.2002563 -0.12309265 2.2860413 -0.81889343 2.4252014l0 0c-0.6957855 0.13916016 -1.4572601 -0.7210083 -1.7007904 -1.9212646z" fill-rule="evenodd"/><path fill="#3c78d8" d="m201.74463 320.26328l0 0c-0.24353027 -1.2002258 0.12310791 -2.2860107 0.8189087 -2.425171l0 0c0.3341217 -0.066833496 0.7010193 0.09802246 1.019989 0.4583435c0.31895447 0.36029053 0.5638428 0.88653564 0.68078613 1.4628906l0 0c0.24353027 1.2002563 -0.12309265 2.2860413 -0.81889343 2.4252014l0 0c-0.6957855 0.13916016 -1.4572601 -0.7210083 -1.7007904 -1.9212646z" fill-rule="evenodd"/><path fill="#3c78d8" d="m198.34306 326.26328l0 0c-0.24353027 -1.2002258 0.12310791 -2.2860107 0.81889343 -2.425171l0 0c0.33413696 -0.066833496 0.70103455 0.09802246 1.019989 0.4583435c0.31896973 0.36029053 0.56385803 0.88653564 0.6808014 1.4628906l0 0c0.24353027 1.2002563 -0.12310791 2.2860413 -0.8189087 2.4252014l0 0c-0.6957855 0.13916016 -1.4572601 -0.7210083 -1.7007751 -1.9212646z" fill-rule="evenodd"/><path fill="#3c78d8" d="m181.26956 311.8381l0 0c-0.24351501 -1.2002563 0.12310791 -2.2860413 0.8189087 -2.4252014l0 0c0.3341217 -0.066833496 0.70103455 0.09805298 1.019989 0.4583435c0.31895447 0.36032104 0.5638428 0.88653564 0.68078613 1.4629211l0 0c0.24353027 1.2002258 -0.12309265 2.2860413 -0.81889343 2.425171l0 0c-0.6957855 0.13916016 -1.4572601 -0.7210083 -1.7007904 -1.9212341z" fill-rule="evenodd"/><path fill="#3c78d8" d="m188.09372 325.76196l0 0c-0.24353027 -1.2002258 0.12310791 -2.2860107 0.81889343 -2.425171l0 0c0.33413696 -0.066833496 0.70103455 0.09802246 1.019989 0.4583435c0.31896973 0.36029053 0.56385803 0.88653564 0.6808014 1.4628906l0 0c0.24353027 1.2002563 -0.12310791 2.2860413 -0.8189087 2.4252014l0 0c-0.6957855 0.13916016 -1.4572601 -0.7210083 -1.7007751 -1.9212646z" fill-rule="evenodd"/><path fill="#3c78d8" d="m206.96773 330.61237l0 0c-0.24353027 -1.2002258 0.12310791 -2.2860413 0.81889343 -2.4252014l0 0c0.33413696 -0.06680298 0.70103455 0.09805298 1.0200043 0.45837402c0.31895447 0.36029053 0.5638428 0.8865051 0.68078613 1.4628906l0 0c0.24353027 1.2002563 -0.12310791 2.2860413 -0.81889343 2.4252014l0 0c-0.6957855 0.13916016 -1.4572601 -0.7210083 -1.7007904 -1.9212646z" fill-rule="evenodd"/><path fill="#3c78d8" d="m128.00972 334.76196l0 0c-0.24352264 -1.2002258 0.12310791 -2.2860107 0.8189087 -2.425171l0 0c0.3341217 -0.066833496 0.70103455 0.09802246 1.019989 0.4583435c0.31895447 0.36029053 0.5638428 0.88653564 0.68078613 1.4628906l0 0c0.24353027 1.2002563 -0.12309265 2.2860413 -0.81889343 2.4252014l0 0c-0.6957855 0.13916016 -1.4572601 -0.7210083 -1.7007904 -1.9212646z" fill-rule="evenodd"/><path fill="#3c78d8" d="m122.508415 338.92996l0 0c-0.24353027 -1.2002563 0.12310028 -2.2860413 0.81889343 -2.4252014l0 0c0.33412933 -0.066833496 0.70103455 0.09805298 1.0199966 0.4583435c0.31895447 0.36032104 0.5638504 0.88653564 0.68079376 1.4629211l0 0c0.24352264 1.2002258 -0.12310791 2.2860413 -0.81890106 2.4252014l0 0c-0.69579315 0.13916016 -1.4572601 -0.7210388 -1.7007828 -1.9212646z" fill-rule="evenodd"/><path fill="#3c78d8" d="m132.75775 344.92996l0 0c-0.24351501 -1.2002563 0.12310791 -2.2860413 0.8189087 -2.4252014l0 0c0.3341217 -0.066833496 0.70103455 0.09805298 1.019989 0.4583435c0.31895447 0.36032104 0.5638428 0.88653564 0.68078613 1.4629211l0 0c0.24353027 1.2002258 -0.12309265 2.2860413 -0.81889343 2.4252014l0 0c-0.6957855 0.13916016 -1.4572601 -0.7210388 -1.7007904 -1.9212646z" fill-rule="evenodd"/><path fill="#3c78d8" d="m129.35619 350.92996l0 0c-0.24353027 -1.2002563 0.12310791 -2.2860413 0.81889343 -2.4252014l0 0c0.33413696 -0.066833496 0.70103455 0.09805298 1.019989 0.4583435c0.31896973 0.36032104 0.56385803 0.88653564 0.6808014 1.4629211l0 0c0.24353027 1.2002258 -0.12310791 2.2860413 -0.81889343 2.4252014l0 0c-0.6958008 0.13916016 -1.4572601 -0.7210388 -1.7007904 -1.9212646z" fill-rule="evenodd"/><path fill="#3c78d8" d="m112.28269 336.50476l0 0c-0.24353027 -1.2002563 0.12310791 -2.2860413 0.81889343 -2.4252014l0 0c0.33413696 -0.066833496 0.70103455 0.09805298 1.0199966 0.4583435c0.3189621 0.36032104 0.5638504 0.88653564 0.68079376 1.4629211l0 0c0.24353027 1.2002258 -0.12310791 2.2860413 -0.81890106 2.4252014l0 0c-0.6957855 0.13916016 -1.4572601 -0.7210388 -1.7007828 -1.9212646z" fill-rule="evenodd"/><path fill="#3c78d8" d="m119.106834 350.42865l0 0c-0.24352264 -1.2002563 0.12310791 -2.2860413 0.81890106 -2.4252014l0 0c0.33412933 -0.066833496 0.70103455 0.09805298 1.0199966 0.4583435c0.31895447 0.36032104 0.5638428 0.88653564 0.68079376 1.4629211l0 0c0.24352264 1.2002258 -0.12310791 2.2860413 -0.81890106 2.4252014l0 0c-0.69579315 0.13916016 -1.4572601 -0.7210388 -1.7007904 -1.9212646z" fill-rule="evenodd"/><path fill="#3c78d8" d="m137.98085 355.27902l0 0c-0.24353027 -1.2002258 0.12310791 -2.2860107 0.8189087 -2.425171l0 0c0.3341217 -0.066833496 0.7010193 0.09805298 1.019989 0.4583435c0.31895447 0.36032104 0.5638428 0.88653564 0.68078613 1.4628906l0 0c0.24353027 1.2002563 -0.12310791 2.2860413 -0.81889343 2.4252014l0 0c-0.6957855 0.13916016 -1.4572601 -0.7210083 -1.7007904 -1.9212646z" fill-rule="evenodd"/><path fill="#3c78d8" d="m120.996605 296.78955l0 0c-0.24353027 -1.2002563 0.12310028 -2.2860413 0.81889343 -2.4252014l0 0c0.33412933 -0.066833496 0.70103455 0.09805298 1.0199966 0.4583435c0.31895447 0.36032104 0.5638428 0.88653564 0.68079376 1.4628906l0 0c0.24352264 1.2002563 -0.12310791 2.2860413 -0.81890106 2.4252014l0 0c-0.69579315 0.13916016 -1.4572601 -0.7210083 -1.7007828 -1.9212341z" fill-rule="evenodd"/><path fill="#3c78d8" d="m115.49529 300.95752l0 0c-0.24353027 -1.2002563 0.12310028 -2.2860413 0.81889343 -2.4252014l0 0c0.33412933 -0.066833496 0.70103455 0.09805298 1.0199966 0.4583435c0.31895447 0.36032104 0.5638428 0.88653564 0.68079376 1.4629211l0 0c0.24352264 1.2002258 -0.12310791 2.2860413 -0.81890106 2.4252014l0 0c-0.69579315 0.13916016 -1.4572601 -0.7210388 -1.7007828 -1.9212646z" fill-rule="evenodd"/><path fill="#3c78d8" d="m125.74464 306.95752l0 0c-0.24353027 -1.2002563 0.12310028 -2.2860413 0.81889343 -2.4252014l0 0c0.33412933 -0.066833496 0.70103455 0.09805298 1.0199966 0.4583435c0.31895447 0.36032104 0.5638428 0.88653564 0.68078613 1.4629211l0 0c0.24353027 1.2002258 -0.12309265 2.2860413 -0.81889343 2.4252014l0 0c-0.69579315 0.13916016 -1.4572601 -0.7210388 -1.7007828 -1.9212646z" fill-rule="evenodd"/><path fill="#3c78d8" d="m122.343056 312.95752l0 0c-0.24352264 -1.2002563 0.12310791 -2.2860413 0.81890106 -2.4252014l0 0c0.33412933 -0.066833496 0.70103455 0.09805298 1.019989 0.4583435c0.3189621 0.36032104 0.5638504 0.88653564 0.6808014 1.4629211l0 0c0.24352264 1.2002258 -0.12310791 2.2860413 -0.81890106 2.4252014l0 0c-0.69579315 0.13916016 -1.4572601 -0.7210388 -1.7007904 -1.9212646z" fill-rule="evenodd"/><path fill="#3c78d8" d="m105.26957 298.53232l0 0c-0.24353027 -1.2002563 0.12310791 -2.2860413 0.81889343 -2.4252014l0 0c0.33413696 -0.066833496 0.70103455 0.09805298 1.0199966 0.45837402c0.3189621 0.36029053 0.5638504 0.8865051 0.68079376 1.4628906l0 0c0.24353027 1.2002258 -0.12310791 2.2860413 -0.81890106 2.4252014l0 0c-0.6957855 0.13916016 -1.4572601 -0.7210388 -1.7007828 -1.9212646z" fill-rule="evenodd"/><path fill="#3c78d8" d="m112.09371 312.4562l0 0c-0.24352264 -1.2002563 0.12310791 -2.2860413 0.81890106 -2.4252014l0 0c0.33412933 -0.066833496 0.70103455 0.09805298 1.019989 0.4583435c0.3189621 0.36032104 0.5638504 0.88653564 0.6808014 1.4629211l0 0c0.24352264 1.2002258 -0.12310791 2.2860413 -0.81890106 2.4252014l0 0c-0.69579315 0.13916016 -1.4572601 -0.7210388 -1.7007904 -1.9212646z" fill-rule="evenodd"/><path fill="#3c78d8" d="m130.96773 317.3066l0 0c-0.24353027 -1.2002563 0.12310791 -2.2860413 0.81889343 -2.4252014l0 0c0.33413696 -0.066833496 0.70103455 0.09805298 1.0200043 0.4583435c0.31895447 0.36032104 0.5638428 0.88653564 0.68078613 1.4629211l0 0c0.24353027 1.2002258 -0.12310791 2.2860107 -0.81889343 2.425171l0 0c-0.6957855 0.13916016 -1.4572601 -0.7210083 -1.7007904 -1.9212341z" fill-rule="evenodd"/><path fill="#3c78d8" d="m162.50316 332.66354l0 0c-0.24351501 -1.2002258 0.12310791 -2.2860413 0.8189087 -2.4252014l0 0c0.3341217 -0.06680298 0.70103455 0.09805298 1.019989 0.45837402c0.31895447 0.36029053 0.5638428 0.88653564 0.68078613 1.4628906l0 0c0.24353027 1.2002563 -0.12309265 2.2860413 -0.81889343 2.4252014l0 0c-0.6957855 0.13916016 -1.4572601 -0.7210083 -1.7007904 -1.9212646z" fill-rule="evenodd"/><path fill="#3c78d8" d="m157.00185 336.83154l0 0c-0.24351501 -1.2002563 0.12310791 -2.2860413 0.8189087 -2.4252014l0 0c0.3341217 -0.066833496 0.70103455 0.09805298 1.019989 0.4583435c0.31895447 0.36032104 0.5638428 0.88653564 0.68078613 1.4629211l0 0c0.24353027 1.2002258 -0.12309265 2.2860107 -0.81889343 2.425171l0 0c-0.6957855 0.13916016 -1.4572601 -0.7210083 -1.7007904 -1.9212341z" fill-rule="evenodd"/><path fill="#3c78d8" d="m167.25119 342.83154l0 0c-0.24351501 -1.2002563 0.12310791 -2.2860413 0.8189087 -2.4252014l0 0c0.3341217 -0.066833496 0.70103455 0.09805298 1.019989 0.4583435c0.31895447 0.36032104 0.5638428 0.88653564 0.68078613 1.4629211l0 0c0.24353027 1.2002258 -0.12309265 2.2860107 -0.81889343 2.425171l0 0c-0.6957855 0.13916016 -1.4572601 -0.7210083 -1.7007904 -1.9212341z" fill-rule="evenodd"/><path fill="#3c78d8" d="m163.84962 348.83154l0 0c-0.24353027 -1.2002563 0.12310791 -2.2860413 0.81889343 -2.4252014l0 0c0.33413696 -0.066833496 0.70103455 0.09805298 1.019989 0.4583435c0.31896973 0.36032104 0.56385803 0.88653564 0.6808014 1.4629211l0 0c0.24353027 1.2002258 -0.12310791 2.2860107 -0.81889343 2.425171l0 0c-0.6958008 0.13916016 -1.4572601 -0.7210083 -1.7007904 -1.9212341z" fill-rule="evenodd"/><path fill="#3c78d8" d="m146.77612 334.40634l0 0c-0.24351501 -1.2002563 0.12310791 -2.2860413 0.8189087 -2.4252014l0 0c0.3341217 -0.066833496 0.70103455 0.09805298 1.019989 0.4583435c0.31895447 0.36032104 0.5638428 0.88653564 0.68078613 1.4629211l0 0c0.24353027 1.2002258 -0.12309265 2.2860413 -0.81889343 2.4252014l0 0c-0.6957855 0.13916016 -1.4572601 -0.7210388 -1.7007904 -1.9212646z" fill-rule="evenodd"/><path fill="#3c78d8" d="m153.60028 348.33023l0 0c-0.24353027 -1.2002563 0.12310791 -2.2860413 0.81889343 -2.4252014l0 0c0.33413696 -0.066833496 0.70103455 0.09805298 1.019989 0.4583435c0.31896973 0.36032104 0.56385803 0.88653564 0.6808014 1.4629211l0 0c0.24353027 1.2002258 -0.12310791 2.2860107 -0.81889343 2.425171l0 0c-0.6958008 0.13916016 -1.4572601 -0.7210083 -1.7007904 -1.9212341z" fill-rule="evenodd"/><path fill="#3c78d8" d="m172.47429 353.1806l0 0c-0.24353027 -1.2002258 0.12310791 -2.2860413 0.81889343 -2.4252014l0 0c0.33413696 -0.06680298 0.70103455 0.09805298 1.0200043 0.45837402c0.31895447 0.36029053 0.5638428 0.88653564 0.68078613 1.4628906l0 0c0.24353027 1.2002563 -0.12310791 2.2860413 -0.81889343 2.4252014l0 0c-0.6957855 0.13916016 -1.4572601 -0.7210083 -1.7007904 -1.9212646z" fill-rule="evenodd"/><path fill="#3c78d8" d="m251.9966 296.78955l0 0c-0.24351501 -1.2002563 0.12310791 -2.2860413 0.8189087 -2.4252014l0 0c0.3341217 -0.066833496 0.70103455 0.09805298 1.019989 0.4583435c0.31895447 0.36032104 0.5638428 0.88653564 0.68078613 1.4628906l0 0c0.24353027 1.2002563 -0.12309265 2.2860413 -0.81889343 2.4252014l0 0c-0.6957855 0.13916016 -1.4572601 -0.7210083 -1.7007904 -1.9212341z" fill-rule="evenodd"/><path fill="#3c78d8" d="m246.49529 300.95752l0 0c-0.24353027 -1.2002563 0.12310791 -2.2860413 0.8189087 -2.4252014l0 0c0.3341217 -0.066833496 0.7010193 0.09805298 1.019989 0.4583435c0.31895447 0.36032104 0.5638428 0.88653564 0.68078613 1.4629211l0 0c0.24353027 1.2002258 -0.12309265 2.2860413 -0.81889343 2.4252014l0 0c-0.6957855 0.13916016 -1.4572601 -0.7210388 -1.7007904 -1.9212646z" fill-rule="evenodd"/><path fill="#3c78d8" d="m256.74463 306.95752l0 0c-0.24353027 -1.2002563 0.12310791 -2.2860413 0.8189087 -2.4252014l0 0c0.33413696 -0.066833496 0.7010193 0.09805298 1.019989 0.4583435c0.31896973 0.36032104 0.5638428 0.88653564 0.68078613 1.4629211l0 0c0.24353027 1.2002258 -0.12310791 2.2860413 -0.8188782 2.4252014l0 0c-0.6958008 0.13916016 -1.4572754 -0.7210388 -1.7008057 -1.9212646z" fill-rule="evenodd"/><path fill="#3c78d8" d="m253.34306 312.95752l0 0c-0.24353027 -1.2002563 0.12310791 -2.2860413 0.81889343 -2.4252014l0 0c0.33413696 -0.066833496 0.70103455 0.09805298 1.019989 0.4583435c0.31896973 0.36032104 0.56385803 0.88653564 0.6808014 1.4629211l0 0c0.24351501 1.2002258 -0.12310791 2.2860413 -0.8189087 2.4252014l0 0c-0.6957855 0.13916016 -1.4572601 -0.7210388 -1.7007751 -1.9212646z" fill-rule="evenodd"/><path fill="#3c78d8" d="m236.26956 298.53232l0 0c-0.24351501 -1.2002563 0.12310791 -2.2860413 0.8189087 -2.4252014l0 0c0.3341217 -0.066833496 0.70103455 0.09805298 1.019989 0.45837402c0.31895447 0.36029053 0.5638428 0.8865051 0.68078613 1.4628906l0 0c0.24353027 1.2002258 -0.12309265 2.2860413 -0.81889343 2.4252014l0 0c-0.6957855 0.13916016 -1.4572601 -0.7210388 -1.7007904 -1.9212646z" fill-rule="evenodd"/><path fill="#3c78d8" d="m243.09372 312.4562l0 0c-0.24353027 -1.2002563 0.12310791 -2.2860413 0.81889343 -2.4252014l0 0c0.33413696 -0.066833496 0.70103455 0.09805298 1.019989 0.4583435c0.31896973 0.36032104 0.56385803 0.88653564 0.6808014 1.4629211l0 0c0.24353027 1.2002258 -0.12310791 2.2860413 -0.8189087 2.4252014l0 0c-0.6957855 0.13916016 -1.4572601 -0.7210388 -1.7007751 -1.9212646z" fill-rule="evenodd"/><path fill="#3c78d8" d="m261.96774 317.3066l0 0c-0.24353027 -1.2002563 0.12310791 -2.2860413 0.8188782 -2.4252014l0 0c0.33413696 -0.066833496 0.7010498 0.09805298 1.019989 0.4583435c0.31896973 0.36032104 0.5638733 0.88653564 0.68081665 1.4629211l0 0c0.24353027 1.2002258 -0.12310791 2.2860107 -0.8189087 2.425171l0 0c-0.6958008 0.13916016 -1.4572754 -0.7210083 -1.7007751 -1.9212341z" fill-rule="evenodd"/><path fill="#3c78d8" d="m239.49791 270.87616l0 0c-0.24351501 -1.2002563 0.12310791 -2.2860413 0.8189087 -2.4252014l0 0c0.3341217 -0.066833496 0.70103455 0.09805298 1.019989 0.4583435c0.31895447 0.36032104 0.5638428 0.88653564 0.68078613 1.4629211l0 0c0.24353027 1.2002258 -0.12309265 2.2860413 -0.81889343 2.4252014l0 0c-0.6957855 0.13912964 -1.4572601 -0.7210388 -1.7007904 -1.9212646z" fill-rule="evenodd"/><path fill="#3c78d8" d="m233.9966 275.04413l0 0c-0.24351501 -1.2002258 0.12310791 -2.2860413 0.8189087 -2.4252014l0 0c0.3341217 -0.066833496 0.70103455 0.09805298 1.019989 0.45837402c0.31895447 0.36029053 0.5638428 0.8865051 0.68078613 1.4628906l0 0c0.24353027 1.2002258 -0.12309265 2.2860413 -0.81889343 2.4252014l0 0c-0.6957855 0.13916016 -1.4572601 -0.7210083 -1.7007904 -1.9212646z" fill-rule="evenodd"/><path fill="#3c78d8" d="m244.24594 281.04413l0 0c-0.24351501 -1.2002258 0.12310791 -2.2860413 0.8189087 -2.4252014l0 0c0.3341217 -0.066833496 0.7010193 0.09805298 1.019989 0.45837402c0.31895447 0.36029053 0.5638428 0.8865051 0.68078613 1.4628906l0 0c0.24353027 1.2002258 -0.12309265 2.2860413 -0.81889343 2.4252014l0 0c-0.6957855 0.13916016 -1.4572601 -0.7210083 -1.7007904 -1.9212646z" fill-rule="evenodd"/><path fill="#3c78d8" d="m240.84438 287.04413l0 0c-0.24353027 -1.2002258 0.12310791 -2.2860413 0.81889343 -2.4252014l0 0c0.33413696 -0.066833496 0.70103455 0.09805298 1.019989 0.45837402c0.31896973 0.36029053 0.56385803 0.8865051 0.6808014 1.4628906l0 0c0.24353027 1.2002258 -0.12310791 2.2860413 -0.8189087 2.4252014l0 0c-0.6957855 0.13916016 -1.4572601 -0.7210083 -1.7007751 -1.9212646z" fill-rule="evenodd"/><path fill="#3c78d8" d="m223.77087 272.61893l0 0c-0.24351501 -1.2002258 0.12310791 -2.2860413 0.8189087 -2.4252014l0 0c0.3341217 -0.06680298 0.70103455 0.09805298 1.019989 0.45837402c0.31895447 0.36029053 0.5638428 0.8865051 0.68078613 1.4628906l0 0c0.24353027 1.2002563 -0.12309265 2.2860413 -0.81889343 2.4252014l0 0c-0.6957855 0.13916016 -1.4572601 -0.7210083 -1.7007904 -1.9212646z" fill-rule="evenodd"/><path fill="#3c78d8" d="m230.59503 286.54282l0 0c-0.24353027 -1.2002258 0.12310791 -2.2860413 0.81889343 -2.4252014l0 0c0.33413696 -0.066833496 0.70103455 0.09805298 1.019989 0.45837402c0.31896973 0.36029053 0.56385803 0.8865051 0.6808014 1.4628906l0 0c0.24353027 1.2002258 -0.12310791 2.2860413 -0.8189087 2.4252014l0 0c-0.6957855 0.13916016 -1.4572601 -0.7210083 -1.7007751 -1.9212646z" fill-rule="evenodd"/><path fill="#3c78d8" d="m249.46904 291.39322l0 0c-0.24353027 -1.2002563 0.12310791 -2.2860413 0.81889343 -2.4252014l0 0c0.33413696 -0.066833496 0.70103455 0.09805298 1.0200043 0.4583435c0.31895447 0.36032104 0.5638428 0.88653564 0.68078613 1.4629211l0 0c0.24353027 1.2002258 -0.12310791 2.2860413 -0.81889343 2.4252014l0 0c-0.6957855 0.13912964 -1.4572601 -0.7210388 -1.7007904 -1.9212646z" fill-rule="evenodd"/><path fill="#3c78d8" d="m239.49791 327.16223l0 0c-0.24351501 -1.2002258 0.12310791 -2.2860413 0.8189087 -2.4252014l0 0c0.3341217 -0.06680298 0.70103455 0.09805298 1.019989 0.45837402c0.31895447 0.36029053 0.5638428 0.88653564 0.68078613 1.4628906l0 0c0.24353027 1.2002563 -0.12309265 2.2860413 -0.81889343 2.4252014l0 0c-0.6957855 0.13916016 -1.4572601 -0.7210083 -1.7007904 -1.9212646z" fill-rule="evenodd"/><path fill="#3c78d8" d="m233.9966 331.33023l0 0c-0.24351501 -1.2002563 0.12310791 -2.2860413 0.8189087 -2.4252014l0 0c0.3341217 -0.066833496 0.70103455 0.09805298 1.019989 0.4583435c0.31895447 0.36032104 0.5638428 0.88653564 0.68078613 1.4629211l0 0c0.24353027 1.2002258 -0.12309265 2.2860107 -0.81889343 2.425171l0 0c-0.6957855 0.13916016 -1.4572601 -0.7210083 -1.7007904 -1.9212341z" fill-rule="evenodd"/><path fill="#3c78d8" d="m244.24594 337.33023l0 0c-0.24351501 -1.2002563 0.12310791 -2.2860413 0.8189087 -2.4252014l0 0c0.3341217 -0.066833496 0.7010193 0.09805298 1.019989 0.4583435c0.31895447 0.36032104 0.5638428 0.88653564 0.68078613 1.4629211l0 0c0.24353027 1.2002258 -0.12309265 2.2860107 -0.81889343 2.425171l0 0c-0.6957855 0.13916016 -1.4572601 -0.7210083 -1.7007904 -1.9212341z" fill-rule="evenodd"/><path fill="#3c78d8" d="m240.84438 343.33023l0 0c-0.24353027 -1.2002563 0.12310791 -2.2860413 0.81889343 -2.4252014l0 0c0.33413696 -0.066833496 0.70103455 0.09805298 1.019989 0.4583435c0.31896973 0.36032104 0.56385803 0.88653564 0.6808014 1.4629211l0 0c0.24353027 1.2002258 -0.12310791 2.2860107 -0.8189087 2.425171l0 0c-0.6957855 0.13916016 -1.4572601 -0.7210083 -1.7007751 -1.9212341z" fill-rule="evenodd"/><path fill="#3c78d8" d="m223.77087 328.90503l0 0c-0.24351501 -1.2002563 0.12310791 -2.2860413 0.8189087 -2.4252014l0 0c0.3341217 -0.066833496 0.70103455 0.09805298 1.019989 0.4583435c0.31895447 0.36032104 0.5638428 0.88653564 0.68078613 1.4629211l0 0c0.24353027 1.2002258 -0.12309265 2.2860413 -0.81889343 2.4252014l0 0c-0.6957855 0.13916016 -1.4572601 -0.7210388 -1.7007904 -1.9212646z" fill-rule="evenodd"/><path fill="#3c78d8" d="m230.59503 342.82892l0 0c-0.24353027 -1.2002563 0.12310791 -2.2860413 0.81889343 -2.4252014l0 0c0.33413696 -0.066833496 0.70103455 0.09805298 1.019989 0.4583435c0.31896973 0.36032104 0.56385803 0.88653564 0.6808014 1.4629211l0 0c0.24353027 1.2002258 -0.12310791 2.2860107 -0.8189087 2.425171l0 0c-0.6957855 0.13916016 -1.4572601 -0.7210083 -1.7007751 -1.9212341z" fill-rule="evenodd"/><path fill="#3c78d8" d="m249.46904 347.6793l0 0c-0.24353027 -1.2002258 0.12310791 -2.2860413 0.81889343 -2.4252014l0 0c0.33413696 -0.06680298 0.70103455 0.09805298 1.0200043 0.45837402c0.31895447 0.36029053 0.5638428 0.88653564 0.68078613 1.4628906l0 0c0.24353027 1.2002563 -0.12310791 2.2860413 -0.81889343 2.4252014l0 0c-0.6957855 0.13916016 -1.4572601 -0.7210083 -1.7007904 -1.9212646z" fill-rule="evenodd"/><path fill="#3c78d8" d="m290.24594 279.16223l0 0c-0.24353027 -1.2002258 0.12310791 -2.2860413 0.8189087 -2.4252014l0 0c0.33413696 -0.06680298 0.7010193 0.09805298 1.019989 0.45837402c0.31896973 0.36029053 0.5638428 0.88653564 0.68078613 1.4628906l0 0c0.24353027 1.2002563 -0.12310791 2.2860413 -0.8188782 2.4252014l0 0c-0.6958008 0.13916016 -1.4572754 -0.7210083 -1.7008057 -1.9212646z" fill-rule="evenodd"/><path fill="#3c78d8" d="m284.74463 283.33023l0 0c-0.24353027 -1.2002563 0.12310791 -2.2860413 0.8189087 -2.4252014l0 0c0.33413696 -0.066833496 0.7010193 0.09805298 1.019989 0.4583435c0.31896973 0.36032104 0.5638428 0.88653564 0.68078613 1.4629211l0 0c0.24353027 1.2002258 -0.12310791 2.2860107 -0.8188782 2.425171l0 0c-0.6958008 0.13916016 -1.4572754 -0.7210083 -1.7008057 -1.9212341z" fill-rule="evenodd"/><path fill="#3c78d8" d="m294.994 289.33023l0 0c-0.24353027 -1.2002563 0.12310791 -2.2860413 0.8188782 -2.4252014l0 0c0.33413696 -0.066833496 0.7010498 0.09805298 1.019989 0.4583435c0.31896973 0.36032104 0.5638733 0.88653564 0.68081665 1.4629211l0 0c0.24353027 1.2002258 -0.12310791 2.2860107 -0.8189087 2.425171l0 0c-0.6958008 0.13916016 -1.4572449 -0.7210083 -1.7007751 -1.9212341z" fill-rule="evenodd"/><path fill="#3c78d8" d="m291.5924 295.33023l0 0c-0.24353027 -1.2002563 0.12310791 -2.2860413 0.8188782 -2.4252014l0 0c0.33413696 -0.066833496 0.7010498 0.09805298 1.0200195 0.4583435c0.3189392 0.36032104 0.5638428 0.88653564 0.68078613 1.4629211l0 0c0.24353027 1.2002258 -0.12310791 2.2860107 -0.8189087 2.425171l0 0c-0.69577026 0.13916016 -1.4572449 -0.7210083 -1.7007751 -1.9212341z" fill-rule="evenodd"/><path fill="#3c78d8" d="m274.51892 280.90503l0 0c-0.24353027 -1.2002563 0.12310791 -2.2860413 0.8188782 -2.4252014l0 0c0.33413696 -0.066833496 0.7010498 0.09805298 1.019989 0.4583435c0.31896973 0.36032104 0.5638733 0.88653564 0.68081665 1.4629211l0 0c0.24353027 1.2002258 -0.12310791 2.2860413 -0.8189087 2.4252014l0 0c-0.6958008 0.13916016 -1.4572449 -0.7210388 -1.7007751 -1.9212646z" fill-rule="evenodd"/><path fill="#3c78d8" d="m281.34305 294.82892l0 0c-0.24353027 -1.2002563 0.12310791 -2.2860413 0.8189087 -2.4252014l0 0c0.33413696 -0.066833496 0.7010193 0.09805298 1.019989 0.4583435c0.31896973 0.36032104 0.5638428 0.88653564 0.68078613 1.4629211l0 0c0.24353027 1.2002258 -0.12310791 2.2860107 -0.8188782 2.425171l0 0c-0.6958008 0.13916016 -1.4572754 -0.7210083 -1.7008057 -1.9212341z" fill-rule="evenodd"/><path fill="#3c78d8" d="m300.21707 299.6793l0 0c-0.24353027 -1.2002258 0.12310791 -2.2860413 0.8189087 -2.4252014l0 0c0.33413696 -0.06680298 0.7010193 0.09805298 1.019989 0.45837402c0.31896973 0.36029053 0.5638428 0.88653564 0.68078613 1.4628906l0 0c0.24353027 1.2002563 -0.12310791 2.2860413 -0.8189087 2.4252014l0 0c-0.69577026 0.13916016 -1.4572449 -0.7210083 -1.7007751 -1.9212646z" fill-rule="evenodd"/><path fill="#3c78d8" d="m346.74725 279.16223l0 0c-0.24353027 -1.2002258 0.12310791 -2.2860413 0.8189087 -2.4252014l0 0c0.33413696 -0.06680298 0.7010193 0.09805298 1.019989 0.45837402c0.31896973 0.36029053 0.5638428 0.88653564 0.68078613 1.4628906l0 0c0.24353027 1.2002563 -0.12310791 2.2860413 -0.8188782 2.4252014l0 0c-0.6958008 0.13916016 -1.4572754 -0.7210083 -1.7008057 -1.9212646z" fill-rule="evenodd"/><path fill="#3c78d8" d="m341.24594 283.33023l0 0c-0.24353027 -1.2002563 0.12310791 -2.2860413 0.8189087 -2.4252014l0 0c0.33413696 -0.066833496 0.7010193 0.09805298 1.019989 0.4583435c0.31896973 0.36032104 0.5638428 0.88653564 0.68078613 1.4629211l0 0c0.24353027 1.2002258 -0.12310791 2.2860107 -0.8188782 2.425171l0 0c-0.6958008 0.13916016 -1.4572754 -0.7210083 -1.7008057 -1.9212341z" fill-rule="evenodd"/><path fill="#3c78d8" d="m351.4953 289.33023l0 0c-0.24353027 -1.2002563 0.12310791 -2.2860413 0.8188782 -2.4252014l0 0c0.33413696 -0.066833496 0.7010498 0.09805298 1.019989 0.4583435c0.31896973 0.36032104 0.5638733 0.88653564 0.68081665 1.4629211l0 0c0.24353027 1.2002258 -0.12310791 2.2860107 -0.8189087 2.425171l0 0c-0.6958008 0.13916016 -1.4572449 -0.7210083 -1.7007751 -1.9212341z" fill-rule="evenodd"/><path fill="#3c78d8" d="m348.09372 295.33023l0 0c-0.24353027 -1.2002563 0.12310791 -2.2860413 0.8188782 -2.4252014l0 0c0.33413696 -0.066833496 0.7010498 0.09805298 1.0200195 0.4583435c0.3189392 0.36032104 0.5638428 0.88653564 0.68078613 1.4629211l0 0c0.24353027 1.2002258 -0.12310791 2.2860107 -0.8189087 2.425171l0 0c-0.69577026 0.13916016 -1.4572449 -0.7210083 -1.7007751 -1.9212341z" fill-rule="evenodd"/><path fill="#3c78d8" d="m331.02023 280.90503l0 0c-0.24353027 -1.2002563 0.12310791 -2.2860413 0.8188782 -2.4252014l0 0c0.33413696 -0.066833496 0.7010498 0.09805298 1.019989 0.4583435c0.31896973 0.36032104 0.5638733 0.88653564 0.68081665 1.4629211l0 0c0.24353027 1.2002258 -0.12310791 2.2860413 -0.8189087 2.4252014l0 0c-0.6958008 0.13916016 -1.4572449 -0.7210388 -1.7007751 -1.9212646z" fill-rule="evenodd"/><path fill="#3c78d8" d="m337.84436 294.82892l0 0c-0.24353027 -1.2002563 0.12310791 -2.2860413 0.8189087 -2.4252014l0 0c0.33413696 -0.066833496 0.7010193 0.09805298 1.019989 0.4583435c0.31896973 0.36032104 0.5638428 0.88653564 0.68078613 1.4629211l0 0c0.24353027 1.2002258 -0.12310791 2.2860107 -0.8188782 2.425171l0 0c-0.6958008 0.13916016 -1.4572754 -0.7210083 -1.7008057 -1.9212341z" fill-rule="evenodd"/><path fill="#3c78d8" d="m356.71838 299.6793l0 0c-0.24353027 -1.2002258 0.12310791 -2.2860413 0.8189087 -2.4252014l0 0c0.33413696 -0.06680298 0.7010193 0.09805298 1.019989 0.45837402c0.31896973 0.36029053 0.5638428 0.88653564 0.68078613 1.4628906l0 0c0.24353027 1.2002563 -0.12310791 2.2860413 -0.8189087 2.4252014l0 0c-0.69577026 0.13916016 -1.4572449 -0.7210083 -1.7007751 -1.9212646z" fill-rule="evenodd"/><path fill="#3c78d8" d="m290.24594 322.15698l0 0c-0.24353027 -1.2002258 0.12310791 -2.2860413 0.8189087 -2.4252014l0 0c0.33413696 -0.06680298 0.7010193 0.09805298 1.019989 0.45837402c0.31896973 0.36029053 0.5638428 0.88653564 0.68078613 1.4628906l0 0c0.24353027 1.2002563 -0.12310791 2.2860413 -0.8188782 2.4252014l0 0c-0.6958008 0.13916016 -1.4572754 -0.7210083 -1.7008057 -1.9212646z" fill-rule="evenodd"/><path fill="#3c78d8" d="m284.74463 326.32498l0 0c-0.24353027 -1.2002563 0.12310791 -2.2860413 0.8189087 -2.4252014l0 0c0.33413696 -0.066833496 0.7010193 0.09805298 1.019989 0.4583435c0.31896973 0.36032104 0.5638428 0.88653564 0.68078613 1.4629211l0 0c0.24353027 1.2002258 -0.12310791 2.2860107 -0.8188782 2.425171l0 0c-0.6958008 0.13916016 -1.4572754 -0.7210083 -1.7008057 -1.9212341z" fill-rule="evenodd"/><path fill="#3c78d8" d="m294.994 332.32498l0 0c-0.24353027 -1.2002563 0.12310791 -2.2860413 0.8188782 -2.4252014l0 0c0.33413696 -0.066833496 0.7010498 0.09805298 1.019989 0.4583435c0.31896973 0.36032104 0.5638733 0.88653564 0.68081665 1.4629211l0 0c0.24353027 1.2002258 -0.12310791 2.2860107 -0.8189087 2.425171l0 0c-0.6958008 0.13916016 -1.4572449 -0.7210083 -1.7007751 -1.9212341z" fill-rule="evenodd"/><path fill="#3c78d8" d="m291.5924 338.32498l0 0c-0.24353027 -1.2002563 0.12310791 -2.2860413 0.8188782 -2.4252014l0 0c0.33413696 -0.066833496 0.7010498 0.09805298 1.0200195 0.4583435c0.3189392 0.36032104 0.5638428 0.88653564 0.68078613 1.4629211l0 0c0.24353027 1.2002258 -0.12310791 2.2860107 -0.8189087 2.425171l0 0c-0.69577026 0.13916016 -1.4572449 -0.7210083 -1.7007751 -1.9212341z" fill-rule="evenodd"/><path fill="#3c78d8" d="m274.51892 323.89978l0 0c-0.24353027 -1.2002563 0.12310791 -2.2860413 0.8188782 -2.4252014l0 0c0.33413696 -0.066833496 0.7010498 0.09805298 1.019989 0.4583435c0.31896973 0.36032104 0.5638733 0.88653564 0.68081665 1.4629211l0 0c0.24353027 1.2002258 -0.12310791 2.2860413 -0.8189087 2.4252014l0 0c-0.6958008 0.13916016 -1.4572449 -0.7210388 -1.7007751 -1.9212646z" fill-rule="evenodd"/><path fill="#3c78d8" d="m281.34305 337.82367l0 0c-0.24353027 -1.2002563 0.12310791 -2.2860413 0.8189087 -2.4252014l0 0c0.33413696 -0.066833496 0.7010193 0.09805298 1.019989 0.4583435c0.31896973 0.36032104 0.5638428 0.88653564 0.68078613 1.4629211l0 0c0.24353027 1.2002258 -0.12310791 2.2860107 -0.8188782 2.425171l0 0c-0.6958008 0.13916016 -1.4572754 -0.7210083 -1.7008057 -1.9212341z" fill-rule="evenodd"/><path fill="#3c78d8" d="m300.21707 342.67404l0 0c-0.24353027 -1.2002258 0.12310791 -2.2860413 0.8189087 -2.4252014l0 0c0.33413696 -0.06680298 0.7010193 0.09805298 1.019989 0.45837402c0.31896973 0.36029053 0.5638428 0.88653564 0.68078613 1.4628906l0 0c0.24353027 1.2002563 -0.12310791 2.2860413 -0.8189087 2.4252014l0 0c-0.69577026 0.13916016 -1.4572449 -0.7210083 -1.7007751 -1.9212646z" fill-rule="evenodd"/><path fill="#3c78d8" d="m402.4953 322.15698l0 0c-0.24353027 -1.2002258 0.12310791 -2.2860413 0.8188782 -2.4252014l0 0c0.33413696 -0.06680298 0.7010498 0.09805298 1.019989 0.45837402c0.31896973 0.36029053 0.5638733 0.88653564 0.68081665 1.4628906l0 0c0.24353027 1.2002563 -0.12310791 2.2860413 -0.8189087 2.4252014l0 0c-0.6958008 0.13916016 -1.4572449 -0.7210083 -1.7007751 -1.9212646z" fill-rule="evenodd"/><path fill="#3c78d8" d="m396.994 326.32498l0 0c-0.24353027 -1.2002563 0.12310791 -2.2860413 0.8188782 -2.4252014l0 0c0.33413696 -0.066833496 0.7010498 0.09805298 1.019989 0.4583435c0.31896973 0.36032104 0.5638733 0.88653564 0.68081665 1.4629211l0 0c0.24353027 1.2002258 -0.12310791 2.2860107 -0.8189087 2.425171l0 0c-0.6958008 0.13916016 -1.4572449 -0.7210083 -1.7007751 -1.9212341z" fill-rule="evenodd"/><path fill="#3c78d8" d="m407.24332 332.32498l0 0c-0.24353027 -1.2002563 0.12310791 -2.2860413 0.8189087 -2.4252014l0 0c0.33413696 -0.066833496 0.7010193 0.09805298 1.019989 0.4583435c0.31896973 0.36032104 0.5638428 0.88653564 0.68078613 1.4629211l0 0c0.24353027 1.2002258 -0.12310791 2.2860107 -0.8188782 2.425171l0 0c-0.6958008 0.13916016 -1.4572754 -0.7210083 -1.7008057 -1.9212341z" fill-rule="evenodd"/><path fill="#3c78d8" d="m403.84174 338.32498l0 0c-0.24353027 -1.2002563 0.12310791 -2.2860413 0.8189087 -2.4252014l0 0c0.33413696 -0.066833496 0.7010193 0.09805298 1.019989 0.4583435c0.31896973 0.36032104 0.5638428 0.88653564 0.68078613 1.4629211l0 0c0.24353027 1.2002258 -0.12310791 2.2860107 -0.8188782 2.425171l0 0c-0.6958008 0.13916016 -1.4572754 -0.7210083 -1.7008057 -1.9212341z" fill-rule="evenodd"/><path fill="#3c78d8" d="m386.76825 323.89978l0 0c-0.24353027 -1.2002563 0.12310791 -2.2860413 0.8189087 -2.4252014l0 0c0.33413696 -0.066833496 0.7010193 0.09805298 1.019989 0.4583435c0.31896973 0.36032104 0.5638428 0.88653564 0.68078613 1.4629211l0 0c0.24353027 1.2002258 -0.12310791 2.2860413 -0.8188782 2.4252014l0 0c-0.6958008 0.13916016 -1.4572754 -0.7210388 -1.7008057 -1.9212646z" fill-rule="evenodd"/><path fill="#3c78d8" d="m393.5924 337.82367l0 0c-0.24353027 -1.2002563 0.12310791 -2.2860413 0.8188782 -2.4252014l0 0c0.33413696 -0.066833496 0.7010498 0.09805298 1.0200195 0.4583435c0.3189392 0.36032104 0.5638428 0.88653564 0.68078613 1.4629211l0 0c0.24353027 1.2002258 -0.12310791 2.2860107 -0.8189087 2.425171l0 0c-0.69577026 0.13916016 -1.4572449 -0.7210083 -1.7007751 -1.9212341z" fill-rule="evenodd"/><path fill="#3c78d8" d="m412.46643 342.67404l0 0c-0.24353027 -1.2002258 0.12310791 -2.2860413 0.8188782 -2.4252014l0 0c0.33413696 -0.06680298 0.7010498 0.09805298 1.019989 0.45837402c0.31896973 0.36029053 0.5638733 0.88653564 0.68081665 1.4628906l0 0c0.24353027 1.2002563 -0.12310791 2.2860413 -0.8189087 2.4252014l0 0c-0.6958008 0.13916016 -1.4572754 -0.7210083 -1.7007751 -1.9212646z" fill-rule="evenodd"/><path fill="#3c78d8" d="m321.4953 291.18323l0 0c-0.24353027 -1.2002258 0.12310791 -2.2860413 0.8188782 -2.4252014l0 0c0.33413696 -0.06680298 0.7010498 0.09805298 1.019989 0.45837402c0.31896973 0.36029053 0.5638733 0.88653564 0.68081665 1.4628906l0 0c0.24353027 1.2002563 -0.12310791 2.2860413 -0.8189087 2.4252014l0 0c-0.6958008 0.13916016 -1.4572449 -0.7210083 -1.7007751 -1.9212646z" fill-rule="evenodd"/><path fill="#3c78d8" d="m315.994 295.35123l0 0c-0.24353027 -1.2002563 0.12310791 -2.2860413 0.8188782 -2.4252014l0 0c0.33413696 -0.066833496 0.7010498 0.09805298 1.019989 0.4583435c0.31896973 0.36032104 0.5638733 0.88653564 0.68081665 1.4629211l0 0c0.24353027 1.2002258 -0.12310791 2.2860413 -0.8189087 2.425171l0 0c-0.6958008 0.13916016 -1.4572449 -0.7210083 -1.7007751 -1.9212341z" fill-rule="evenodd"/><path fill="#3c78d8" d="m326.24332 301.35123l0 0c-0.24353027 -1.2002563 0.12310791 -2.2860413 0.8189087 -2.4252014l0 0c0.33413696 -0.066833496 0.7010193 0.09805298 1.019989 0.4583435c0.31896973 0.36032104 0.5638428 0.88653564 0.68078613 1.4629211l0 0c0.24353027 1.2002258 -0.12310791 2.2860413 -0.8188782 2.425171l0 0c-0.6958008 0.13916016 -1.4572754 -0.7210083 -1.7008057 -1.9212341z" fill-rule="evenodd"/><path fill="#3c78d8" d="m322.84174 307.35123l0 0c-0.24353027 -1.2002563 0.12310791 -2.2860413 0.8189087 -2.4252014l0 0c0.33413696 -0.066833496 0.7010193 0.09805298 1.019989 0.4583435c0.31896973 0.36032104 0.5638428 0.88653564 0.68078613 1.4629211l0 0c0.24353027 1.2002258 -0.12310791 2.2860413 -0.8188782 2.425171l0 0c-0.6958008 0.13916016 -1.4572754 -0.7210083 -1.7008057 -1.9212341z" fill-rule="evenodd"/><path fill="#3c78d8" d="m305.76825 292.92603l0 0c-0.24353027 -1.2002563 0.12310791 -2.2860413 0.8189087 -2.4252014l0 0c0.33413696 -0.066833496 0.7010193 0.09805298 1.019989 0.4583435c0.31896973 0.36032104 0.5638428 0.88653564 0.68078613 1.4629211l0 0c0.24353027 1.2002258 -0.12310791 2.2860413 -0.8188782 2.4252014l0 0c-0.6958008 0.13916016 -1.4572754 -0.7210388 -1.7008057 -1.9212646z" fill-rule="evenodd"/><path fill="#3c78d8" d="m312.5924 306.8499l0 0c-0.24353027 -1.2002563 0.12310791 -2.2860413 0.8188782 -2.4252014l0 0c0.33413696 -0.066833496 0.7010498 0.09805298 1.0200195 0.4583435c0.3189392 0.36032104 0.5638428 0.88653564 0.68078613 1.4629211l0 0c0.24353027 1.2002258 -0.12310791 2.2860413 -0.8189087 2.425171l0 0c-0.69577026 0.13916016 -1.4572449 -0.7210083 -1.7007751 -1.9212341z" fill-rule="evenodd"/><path fill="#3c78d8" d="m331.46643 311.7003l0 0c-0.24353027 -1.2002258 0.12310791 -2.2860413 0.8188782 -2.4252014l0 0c0.33413696 -0.06680298 0.7010498 0.09805298 1.019989 0.45837402c0.31896973 0.36029053 0.5638733 0.88653564 0.68081665 1.4628906l0 0c0.24353027 1.2002563 -0.12310791 2.2860413 -0.8189087 2.4252014l0 0c-0.6958008 0.13916016 -1.4572754 -0.7210083 -1.7007751 -1.9212646z" fill-rule="evenodd"/><path fill="#3c78d8" d="m403.24857 274.53757l0 0c-0.24353027 -1.2002258 0.12310791 -2.2860413 0.8189087 -2.4252014l0 0c0.33413696 -0.066833496 0.7010193 0.09805298 1.019989 0.45837402c0.31896973 0.36029053 0.5638428 0.8865051 0.68078613 1.4628906l0 0c0.24353027 1.2002258 -0.12310791 2.2860413 -0.8188782 2.4252014l0 0c-0.6958008 0.13916016 -1.4572754 -0.7210388 -1.7008057 -1.9212646z" fill-rule="evenodd"/><path fill="#3c78d8" d="m397.74725 278.70554l0 0c-0.24353027 -1.2002258 0.12310791 -2.2860413 0.8189087 -2.4252014l0 0c0.33413696 -0.06680298 0.7010193 0.09805298 1.019989 0.45837402c0.31896973 0.36029053 0.5638428 0.88653564 0.68078613 1.4628906l0 0c0.24353027 1.2002563 -0.12310791 2.2860413 -0.8188782 2.4252014l0 0c-0.6958008 0.13916016 -1.4572754 -0.7210083 -1.7008057 -1.9212646z" fill-rule="evenodd"/><path fill="#3c78d8" d="m407.9966 284.70554l0 0c-0.24353027 -1.2002258 0.12310791 -2.2860413 0.8188782 -2.4252014l0 0c0.33413696 -0.06680298 0.7010498 0.09805298 1.019989 0.45837402c0.31896973 0.36029053 0.5638733 0.88653564 0.68081665 1.4628906l0 0c0.24353027 1.2002563 -0.12310791 2.2860413 -0.8189087 2.4252014l0 0c-0.6958008 0.13916016 -1.4572449 -0.7210083 -1.7007751 -1.9212646z" fill-rule="evenodd"/><path fill="#3c78d8" d="m404.59503 290.70554l0 0c-0.24353027 -1.2002258 0.12310791 -2.2860413 0.8188782 -2.4252014l0 0c0.33413696 -0.06680298 0.7010498 0.09805298 1.0200195 0.45837402c0.3189392 0.36029053 0.5638428 0.88653564 0.68078613 1.4628906l0 0c0.24353027 1.2002563 -0.12310791 2.2860413 -0.8189087 2.4252014l0 0c-0.69577026 0.13916016 -1.4572449 -0.7210083 -1.7007751 -1.9212646z" fill-rule="evenodd"/><path fill="#3c78d8" d="m387.52155 276.28033l0 0c-0.24353027 -1.2002258 0.12310791 -2.2860107 0.8188782 -2.425171l0 0c0.33413696 -0.066833496 0.7010498 0.09805298 1.019989 0.4583435c0.31896973 0.36032104 0.5638733 0.88653564 0.68081665 1.4628906l0 0c0.24353027 1.2002563 -0.12310791 2.2860413 -0.8189087 2.4252014l0 0c-0.6958008 0.13916016 -1.4572449 -0.7210083 -1.7007751 -1.9212646z" fill-rule="evenodd"/><path fill="#3c78d8" d="m394.34567 290.20422l0 0c-0.24353027 -1.2002258 0.12310791 -2.2860413 0.8189087 -2.4252014l0 0c0.33413696 -0.06680298 0.7010193 0.09805298 1.019989 0.45837402c0.31896973 0.36029053 0.5638428 0.88653564 0.68078613 1.4628906l0 0c0.24353027 1.2002563 -0.12310791 2.2860413 -0.8188782 2.4252014l0 0c-0.6958008 0.13916016 -1.4572754 -0.7210083 -1.7008057 -1.9212646z" fill-rule="evenodd"/><path fill="#3c78d8" d="m413.2197 295.05463l0 0c-0.24353027 -1.2002258 0.12310791 -2.2860413 0.8189087 -2.4252014l0 0c0.33413696 -0.066833496 0.7010193 0.09805298 1.019989 0.45837402c0.31896973 0.36029053 0.5638428 0.8865051 0.68078613 1.4628906l0 0c0.24353027 1.2002563 -0.12310791 2.2860413 -0.8189087 2.4252014l0 0c-0.69577026 0.13916016 -1.4572449 -0.7210083 -1.7007751 -1.9212646z" fill-rule="evenodd"/><path fill="#3c78d8" d="m379.9966 291.18323l0 0c-0.24353027 -1.2002258 0.12310791 -2.2860413 0.8188782 -2.4252014l0 0c0.33413696 -0.06680298 0.7010498 0.09805298 1.019989 0.45837402c0.31896973 0.36029053 0.5638733 0.88653564 0.68081665 1.4628906l0 0c0.24353027 1.2002563 -0.12310791 2.2860413 -0.8189087 2.4252014l0 0c-0.6958008 0.13916016 -1.4572449 -0.7210083 -1.7007751 -1.9212646z" fill-rule="evenodd"/><path fill="#3c78d8" d="m374.4953 295.35123l0 0c-0.24353027 -1.2002563 0.12310791 -2.2860413 0.8188782 -2.4252014l0 0c0.33413696 -0.066833496 0.7010498 0.09805298 1.019989 0.4583435c0.31896973 0.36032104 0.5638733 0.88653564 0.68081665 1.4629211l0 0c0.24353027 1.2002258 -0.12310791 2.2860413 -0.8189087 2.425171l0 0c-0.6958008 0.13916016 -1.4572449 -0.7210083 -1.7007751 -1.9212341z" fill-rule="evenodd"/><path fill="#3c78d8" d="m384.74463 301.35123l0 0c-0.24353027 -1.2002563 0.12310791 -2.2860413 0.8189087 -2.4252014l0 0c0.33413696 -0.066833496 0.7010193 0.09805298 1.019989 0.4583435c0.31896973 0.36032104 0.5638428 0.88653564 0.68078613 1.4629211l0 0c0.24353027 1.2002258 -0.12310791 2.2860413 -0.8188782 2.425171l0 0c-0.6958008 0.13916016 -1.4572754 -0.7210083 -1.7008057 -1.9212341z" fill-rule="evenodd"/><path fill="#3c78d8" d="m381.34305 307.35123l0 0c-0.24353027 -1.2002563 0.12310791 -2.2860413 0.8189087 -2.4252014l0 0c0.33413696 -0.066833496 0.7010193 0.09805298 1.019989 0.4583435c0.31896973 0.36032104 0.5638428 0.88653564 0.68078613 1.4629211l0 0c0.24353027 1.2002258 -0.12310791 2.2860413 -0.8188782 2.425171l0 0c-0.6958008 0.13916016 -1.4572754 -0.7210083 -1.7008057 -1.9212341z" fill-rule="evenodd"/><path fill="#3c78d8" d="m364.26956 292.92603l0 0c-0.24353027 -1.2002563 0.12310791 -2.2860413 0.8189087 -2.4252014l0 0c0.33413696 -0.066833496 0.7010193 0.09805298 1.019989 0.4583435c0.31896973 0.36032104 0.5638428 0.88653564 0.68078613 1.4629211l0 0c0.24353027 1.2002258 -0.12310791 2.2860413 -0.8188782 2.4252014l0 0c-0.6958008 0.13916016 -1.4572754 -0.7210388 -1.7008057 -1.9212646z" fill-rule="evenodd"/><path fill="#3c78d8" d="m371.09372 306.8499l0 0c-0.24353027 -1.2002563 0.12310791 -2.2860413 0.8188782 -2.4252014l0 0c0.33413696 -0.066833496 0.7010498 0.09805298 1.0200195 0.4583435c0.3189392 0.36032104 0.5638428 0.88653564 0.68078613 1.4629211l0 0c0.24353027 1.2002258 -0.12310791 2.2860413 -0.8189087 2.425171l0 0c-0.69577026 0.13916016 -1.4572449 -0.7210083 -1.7007751 -1.9212341z" fill-rule="evenodd"/><path fill="#3c78d8" d="m389.96774 311.7003l0 0c-0.24353027 -1.2002258 0.12310791 -2.2860413 0.8188782 -2.4252014l0 0c0.33413696 -0.06680298 0.7010498 0.09805298 1.019989 0.45837402c0.31896973 0.36029053 0.5638733 0.88653564 0.68081665 1.4628906l0 0c0.24353027 1.2002563 -0.12310791 2.2860413 -0.8189087 2.4252014l0 0c-0.6958008 0.13916016 -1.4572754 -0.7210083 -1.7007751 -1.9212646z" fill-rule="evenodd"/><path fill="#3c78d8" d="m356.4953 316.552l0 0c-0.24353027 -1.2002258 0.12310791 -2.2860413 0.8188782 -2.4252014l0 0c0.33413696 -0.066833496 0.7010498 0.09805298 1.019989 0.45837402c0.31896973 0.36029053 0.5638733 0.8865051 0.68081665 1.4628906l0 0c0.24353027 1.2002563 -0.12310791 2.2860413 -0.8189087 2.4252014l0 0c-0.6958008 0.13916016 -1.4572449 -0.7210083 -1.7007751 -1.9212646z" fill-rule="evenodd"/><path fill="#3c78d8" d="m350.994 320.71997l0 0c-0.24353027 -1.2002258 0.12310791 -2.2860413 0.8188782 -2.425171l0 0c0.33413696 -0.066833496 0.7010498 0.09802246 1.019989 0.4583435c0.31896973 0.36029053 0.5638733 0.88653564 0.68081665 1.4628906l0 0c0.24353027 1.2002563 -0.12310791 2.2860413 -0.8189087 2.4252014l0 0c-0.6958008 0.13916016 -1.4572449 -0.7210083 -1.7007751 -1.9212646z" fill-rule="evenodd"/><path fill="#3c78d8" d="m361.24332 326.71997l0 0c-0.24353027 -1.2002258 0.12310791 -2.2860413 0.8189087 -2.425171l0 0c0.33413696 -0.066833496 0.7010193 0.09802246 1.019989 0.4583435c0.31896973 0.36029053 0.5638428 0.88653564 0.68078613 1.4628906l0 0c0.24353027 1.2002563 -0.12310791 2.2860413 -0.8188782 2.4252014l0 0c-0.6958008 0.13916016 -1.4572754 -0.7210083 -1.7008057 -1.9212646z" fill-rule="evenodd"/><path fill="#3c78d8" d="m357.84174 332.71997l0 0c-0.24353027 -1.2002258 0.12310791 -2.2860413 0.8189087 -2.425171l0 0c0.33413696 -0.066833496 0.7010193 0.09802246 1.019989 0.4583435c0.31896973 0.36029053 0.5638428 0.88653564 0.68078613 1.4628906l0 0c0.24353027 1.2002563 -0.12310791 2.2860413 -0.8188782 2.4252014l0 0c-0.6958008 0.13916016 -1.4572754 -0.7210083 -1.7008057 -1.9212646z" fill-rule="evenodd"/><path fill="#3c78d8" d="m340.76825 318.2948l0 0c-0.24353027 -1.2002563 0.12310791 -2.2860413 0.8189087 -2.4252014l0 0c0.33413696 -0.066833496 0.7010193 0.09805298 1.019989 0.4583435c0.31896973 0.36032104 0.5638428 0.88653564 0.68078613 1.4629211l0 0c0.24353027 1.2002258 -0.12310791 2.2860107 -0.8188782 2.425171l0 0c-0.6958008 0.13916016 -1.4572754 -0.7210083 -1.7008057 -1.9212341z" fill-rule="evenodd"/><path fill="#3c78d8" d="m347.5924 332.21866l0 0c-0.24353027 -1.2002258 0.12310791 -2.2860413 0.8188782 -2.425171l0 0c0.33413696 -0.066833496 0.7010498 0.09802246 1.0200195 0.4583435c0.3189392 0.36029053 0.5638428 0.88653564 0.68078613 1.4628906l0 0c0.24353027 1.2002563 -0.12310791 2.2860413 -0.8189087 2.4252014l0 0c-0.69577026 0.13916016 -1.4572449 -0.7210083 -1.7007751 -1.9212646z" fill-rule="evenodd"/><path fill="#3c78d8" d="m366.46643 337.06906l0 0c-0.24353027 -1.2002258 0.12310791 -2.2860413 0.8188782 -2.4252014l0 0c0.33413696 -0.066833496 0.7010498 0.09805298 1.019989 0.45837402c0.31896973 0.36029053 0.5638733 0.8865051 0.68081665 1.4628906l0 0c0.24353027 1.2002563 -0.12310791 2.2860413 -0.8189087 2.4252014l0 0c-0.6958008 0.13916016 -1.4572754 -0.7210083 -1.7007751 -1.9212646z" fill-rule="evenodd"/><path fill="#3c78d8" d="m431.59503 310.0953l0 0c-0.24353027 -1.2002258 0.12310791 -2.2860413 0.8188782 -2.4252014l0 0c0.33413696 -0.06680298 0.7010498 0.09805298 1.0200195 0.45837402c0.3189392 0.36029053 0.5638428 0.8865051 0.68078613 1.4628906l0 0c0.24353027 1.2002563 -0.12310791 2.2860413 -0.8189087 2.4252014l0 0c-0.69577026 0.13916016 -1.4572449 -0.7210083 -1.7007751 -1.9212646z" fill-rule="evenodd"/><path fill="#3c78d8" d="m426.09372 314.26328l0 0c-0.24353027 -1.2002258 0.12310791 -2.2860107 0.8188782 -2.425171l0 0c0.33413696 -0.066833496 0.7010498 0.09802246 1.0200195 0.4583435c0.3189392 0.36029053 0.5638428 0.88653564 0.68078613 1.4628906l0 0c0.24353027 1.2002563 -0.12310791 2.2860413 -0.8189087 2.4252014l0 0c-0.69577026 0.13916016 -1.4572449 -0.7210083 -1.7007751 -1.9212646z" fill-rule="evenodd"/><path fill="#3c78d8" d="m436.34305 320.26328l0 0c-0.24353027 -1.2002258 0.12310791 -2.2860107 0.8189087 -2.425171l0 0c0.33413696 -0.066833496 0.7010193 0.09802246 1.019989 0.4583435c0.31896973 0.36029053 0.5638428 0.88653564 0.68078613 1.4628906l0 0c0.24353027 1.2002563 -0.12310791 2.2860413 -0.8188782 2.4252014l0 0c-0.6958008 0.13916016 -1.4572754 -0.7210083 -1.7008057 -1.9212646z" fill-rule="evenodd"/><path fill="#3c78d8" d="m432.9415 326.26328l0 0c-0.24353027 -1.2002258 0.12307739 -2.2860107 0.8188782 -2.425171l0 0c0.33413696 -0.066833496 0.7010498 0.09802246 1.019989 0.4583435c0.31896973 0.36029053 0.5638428 0.88653564 0.68081665 1.4628906l0 0c0.24349976 1.2002563 -0.12310791 2.2860413 -0.8189087 2.4252014l0 0c-0.6958008 0.13916016 -1.4572754 -0.7210083 -1.7007751 -1.9212646z" fill-rule="evenodd"/><path fill="#3c78d8" d="m415.86798 311.8381l0 0c-0.24353027 -1.2002563 0.12310791 -2.2860413 0.8189087 -2.4252014l0 0c0.33413696 -0.066833496 0.7010193 0.09805298 1.019989 0.4583435c0.31896973 0.36032104 0.5638428 0.88653564 0.68078613 1.4629211l0 0c0.24353027 1.2002258 -0.12310791 2.2860413 -0.8188782 2.425171l0 0c-0.6958008 0.13916016 -1.4572754 -0.7210083 -1.7008057 -1.9212341z" fill-rule="evenodd"/><path fill="#3c78d8" d="m422.69214 325.76196l0 0c-0.24353027 -1.2002258 0.12310791 -2.2860107 0.8189087 -2.425171l0 0c0.33410645 -0.066833496 0.7010193 0.09802246 1.019989 0.4583435c0.3189392 0.36029053 0.5638428 0.88653564 0.68078613 1.4628906l0 0c0.24353027 1.2002563 -0.12310791 2.2860413 -0.8189087 2.4252014l0 0c-0.69577026 0.13916016 -1.4572449 -0.7210083 -1.7007751 -1.9212646z" fill-rule="evenodd"/><path fill="#3c78d8" d="m441.56616 330.61237l0 0c-0.24353027 -1.2002258 0.12310791 -2.2860413 0.8188782 -2.4252014l0 0c0.33413696 -0.06680298 0.7010498 0.09805298 1.0200195 0.45837402c0.3189392 0.36029053 0.5638428 0.8865051 0.68078613 1.4628906l0 0c0.24353027 1.2002563 -0.12310791 2.2860413 -0.8189087 2.4252014l0 0c-0.6958008 0.13916016 -1.4572449 -0.7210083 -1.7007751 -1.9212646z" fill-rule="evenodd"/><path fill="#3c78d8" d="m327.24594 322.15698l0 0c-0.24353027 -1.2002258 0.12310791 -2.2860413 0.8189087 -2.4252014l0 0c0.33413696 -0.06680298 0.7010193 0.09805298 1.019989 0.45837402c0.31896973 0.36029053 0.5638428 0.88653564 0.68078613 1.4628906l0 0c0.24353027 1.2002563 -0.12310791 2.2860413 -0.8188782 2.4252014l0 0c-0.6958008 0.13916016 -1.4572754 -0.7210083 -1.7008057 -1.9212646z" fill-rule="evenodd"/><path fill="#3c78d8" d="m321.74463 326.32498l0 0c-0.24353027 -1.2002563 0.12310791 -2.2860413 0.8189087 -2.4252014l0 0c0.33413696 -0.066833496 0.7010193 0.09805298 1.019989 0.4583435c0.31896973 0.36032104 0.5638428 0.88653564 0.68078613 1.4629211l0 0c0.24353027 1.2002258 -0.12310791 2.2860107 -0.8188782 2.425171l0 0c-0.6958008 0.13916016 -1.4572754 -0.7210083 -1.7008057 -1.9212341z" fill-rule="evenodd"/><path fill="#3c78d8" d="m331.994 332.32498l0 0c-0.24353027 -1.2002563 0.12310791 -2.2860413 0.8188782 -2.4252014l0 0c0.33413696 -0.066833496 0.7010498 0.09805298 1.019989 0.4583435c0.31896973 0.36032104 0.5638733 0.88653564 0.68081665 1.4629211l0 0c0.24353027 1.2002258 -0.12310791 2.2860107 -0.8189087 2.425171l0 0c-0.6958008 0.13916016 -1.4572449 -0.7210083 -1.7007751 -1.9212341z" fill-rule="evenodd"/><path fill="#3c78d8" d="m328.5924 338.32498l0 0c-0.24353027 -1.2002563 0.12310791 -2.2860413 0.8188782 -2.4252014l0 0c0.33413696 -0.066833496 0.7010498 0.09805298 1.0200195 0.4583435c0.3189392 0.36032104 0.5638428 0.88653564 0.68078613 1.4629211l0 0c0.24353027 1.2002258 -0.12310791 2.2860107 -0.8189087 2.425171l0 0c-0.69577026 0.13916016 -1.4572449 -0.7210083 -1.7007751 -1.9212341z" fill-rule="evenodd"/><path fill="#3c78d8" d="m311.51892 323.89978l0 0c-0.24353027 -1.2002563 0.12310791 -2.2860413 0.8188782 -2.4252014l0 0c0.33413696 -0.066833496 0.7010498 0.09805298 1.019989 0.4583435c0.31896973 0.36032104 0.5638733 0.88653564 0.68081665 1.4629211l0 0c0.24353027 1.2002258 -0.12310791 2.2860413 -0.8189087 2.4252014l0 0c-0.6958008 0.13916016 -1.4572449 -0.7210388 -1.7007751 -1.9212646z" fill-rule="evenodd"/><path fill="#3c78d8" d="m318.34305 337.82367l0 0c-0.24353027 -1.2002563 0.12310791 -2.2860413 0.8189087 -2.4252014l0 0c0.33413696 -0.066833496 0.7010193 0.09805298 1.019989 0.4583435c0.31896973 0.36032104 0.5638428 0.88653564 0.68078613 1.4629211l0 0c0.24353027 1.2002258 -0.12310791 2.2860107 -0.8188782 2.425171l0 0c-0.6958008 0.13916016 -1.4572754 -0.7210083 -1.7008057 -1.9212341z" fill-rule="evenodd"/><path fill="#3c78d8" d="m337.21707 342.67404l0 0c-0.24353027 -1.2002258 0.12310791 -2.2860413 0.8189087 -2.4252014l0 0c0.33413696 -0.06680298 0.7010193 0.09805298 1.019989 0.45837402c0.31896973 0.36029053 0.5638428 0.88653564 0.68078613 1.4628906l0 0c0.24353027 1.2002563 -0.12310791 2.2860413 -0.8189087 2.4252014l0 0c-0.69577026 0.13916016 -1.4572449 -0.7210083 -1.7007751 -1.9212646z" fill-rule="evenodd"/><path fill="#3c78d8" d="m157.24594 371.65567l0 0c-0.24351501 -1.2002258 0.12310791 -2.2860413 0.8189087 -2.4252014l0 0c0.3341217 -0.06680298 0.7010193 0.09805298 1.019989 0.45837402c0.31895447 0.36029053 0.5638428 0.88653564 0.68078613 1.4628906l0 0c0.24353027 1.2002563 -0.12309265 2.2860413 -0.81889343 2.4252014l0 0c-0.6957855 0.13916016 -1.4572601 -0.7210083 -1.7007904 -1.9212646z" fill-rule="evenodd"/><path fill="#3c78d8" d="m151.74463 375.82367l0 0c-0.24353027 -1.2002563 0.12310791 -2.2860413 0.8189087 -2.4252014l0 0c0.3341217 -0.066833496 0.7010193 0.09805298 1.019989 0.4583435c0.31895447 0.36032104 0.5638428 0.88653564 0.68078613 1.4629211l0 0c0.24353027 1.2002258 -0.12309265 2.2860107 -0.81889343 2.425171l0 0c-0.6957855 0.13916016 -1.4572601 -0.7210083 -1.7007904 -1.9212341z" fill-rule="evenodd"/><path fill="#3c78d8" d="m161.99397 381.82367l0 0c-0.24353027 -1.2002563 0.12310791 -2.2860413 0.8189087 -2.4252014l0 0c0.3341217 -0.066833496 0.7010193 0.09805298 1.019989 0.4583435c0.31895447 0.36032104 0.5638428 0.88653564 0.68078613 1.4629211l0 0c0.24353027 1.2002258 -0.12309265 2.2860107 -0.81889343 2.425171l0 0c-0.6957855 0.13916016 -1.4572601 -0.7210083 -1.7007904 -1.9212341z" fill-rule="evenodd"/><path fill="#3c78d8" d="m158.5924 387.82367l0 0c-0.24353027 -1.2002563 0.12310791 -2.2860413 0.81889343 -2.4252014l0 0c0.33413696 -0.066833496 0.70103455 0.09805298 1.019989 0.4583435c0.31896973 0.36032104 0.56385803 0.88653564 0.6808014 1.4629211l0 0c0.24353027 1.2002258 -0.12310791 2.2860107 -0.8189087 2.425171l0 0c-0.6957855 0.13916016 -1.4572601 -0.7210083 -1.7007751 -1.9212341z" fill-rule="evenodd"/><path fill="#3c78d8" d="m141.5189 373.39847l0 0c-0.24351501 -1.2002563 0.12310791 -2.2860413 0.8189087 -2.4252014l0 0c0.3341217 -0.066833496 0.70103455 0.09805298 1.019989 0.4583435c0.31895447 0.36032104 0.5638428 0.88653564 0.68078613 1.4629211l0 0c0.24353027 1.2002258 -0.12309265 2.2860413 -0.81889343 2.4252014l0 0c-0.6957855 0.13916016 -1.4572601 -0.7210388 -1.7007904 -1.9212646z" fill-rule="evenodd"/><path fill="#3c78d8" d="m148.34306 387.32236l0 0c-0.24353027 -1.2002563 0.12310791 -2.2860413 0.81889343 -2.4252014l0 0c0.33413696 -0.066833496 0.70103455 0.09805298 1.019989 0.4583435c0.31896973 0.36032104 0.56385803 0.88653564 0.6808014 1.4629211l0 0c0.24353027 1.2002258 -0.12310791 2.2860107 -0.8189087 2.425171l0 0c-0.6957855 0.13916016 -1.4572601 -0.7210083 -1.7007751 -1.9212341z" fill-rule="evenodd"/><path fill="#3c78d8" d="m167.21707 392.17273l0 0c-0.24353027 -1.2002258 0.12310791 -2.2860413 0.81889343 -2.4252014l0 0c0.33413696 -0.06680298 0.70103455 0.09805298 1.0200043 0.45837402c0.31895447 0.36029053 0.5638428 0.88653564 0.68078613 1.4628906l0 0c0.24353027 1.2002563 -0.12310791 2.2860413 -0.81889343 2.4252014l0 0c-0.6957855 0.13916016 -1.4572601 -0.7210083 -1.7007904 -1.9212646z" fill-rule="evenodd"/><path fill="#85200c" d="m124.71434 344.59705l5.0393677 1.6378174l-24.125984 74.20471l-5.0393677 -1.6377869z" fill-rule="evenodd"/><path fill="#6aa84f" d="m69.34558 306.18054c-0.9168854 1.3333435 4.333336 5.666687 8.0 7.0c3.6666641 1.3333435 9.166664 -0.41687012 14.0 1.0c4.833336 1.4169006 10.583115 5.1679993 15.0 7.5013123c4.4168854 2.3333435 13.334648 5.748932 11.501312 6.4986877c-1.8333359 0.7497864 -17.084427 -2.41687 -22.501312 -2.0c-5.4168854 0.41690063 -9.666664 3.0844421 -10.0 4.5013123c-0.33333588 1.4169006 2.8333359 3.4169006 8.0 4.0c5.166664 0.5831299 20.5 -1.9177551 23.0 -0.50131226c2.5 1.4164734 -4.5 5.9164734 -8.0 9.0c-3.5 3.0835571 -15.250221 8.917786 -13.0 9.501312c2.2502213 0.5835571 20.501312 -6.416443 26.501312 -6.0c6.0 0.4164734 6.0822372 6.082245 9.498688 8.498688c3.4164429 2.4164734 8.249786 8.0 11.0 6.0c2.7502136 -2.0 0.667984 -18.0 5.5013123 -18.0c4.8333282 0 18.082245 15.3333435 23.498688 18.0c5.416443 2.666687 12.583115 2.58313 9.0 -2.0c-3.5831146 -4.5830994 -26.248901 -20.832 -30.498688 -25.498688c-4.2497864 -4.6666565 -1.9164429 -6.0844116 5.0 -2.5013123c6.916443 3.58313 32.082245 22.916473 36.498688 24.0c4.416443 1.0835571 -4.083557 -12.665344 -10.0 -17.498688c-5.916443 -4.833313 -22.498688 -8.667969 -25.498688 -11.501312c-3.0 -2.833313 0.24890137 -4.9986877 7.4986877 -5.4986877c7.2497864 -0.5 33.583115 4.082245 36.0 2.4986877c2.4168854 -1.5835266 -12.332016 -11.5 -21.498688 -12.0c-9.166672 -0.5 -27.83464 9.3333435 -33.501312 9.0c-5.6666718 -0.333313 1.0013123 -7.333313 -0.49868774 -11.0c-1.5 -3.6666565 -6.084427 -9.0 -8.501312 -11.0c-2.4168854 -2.0 -5.2502136 -4.0 -6.0 -1.0c-0.7497864 3.0 2.0844269 15.3333435 1.5013123 19.0c-0.5831146 3.666687 -3.6666641 5.58313 -5.0 3.0c-1.3333359 -2.5830994 -0.6666641 -13.748901 -3.0 -18.498688c-2.3333359 -4.749756 -8.0 -8.416443 -11.0 -10.0c-3.0 -1.5835266 -7.0831146 -2.5844116 -7.0 0.49868774c0.083114624 3.08313 4.748909 13.666687 7.4986877 18.0c2.7497787 4.3333435 9.4164505 6.666687 9.0 8.0c-0.4164505 1.3333435 -5.0822372 2.0 -11.498688 0c-6.4164505 -2.0 -20.249779 -10.1666565 -27.0 -12.0c-6.7502213 -1.833313 -12.584427 -0.333313 -13.501312 1.0z" fill-rule="evenodd"/></g></svg>